<svg width="256" height="256" viewBox="0 0 256 256" fill="none" xmlns="http://www.w3.org/2000/svg">
<path d="M85.2731 73.1551C96.3622 72.5713 123.135 73.2199 141.643 82.5379C164.777 94.1855 174.226 108.421 179.44 127.187C184.653 145.952 182.698 168.924 182.372 174.101C182.046 179.277 177.159 181.542 173.575 182.837C169.99 184.131 164.451 177.336 157.283 176.689C150.114 176.042 137.081 178.307 126.328 174.424C115.576 170.542 104.823 163.1 92.4415 150.159C80.0598 137.217 79.4081 128.158 78.7564 111.98C78.1048 95.8033 74.5206 89.6559 73.5431 86.744C72.5656 83.8321 72.5656 81.8908 76.4756 78.3318C80.3855 74.7729 82.0194 73.3264 85.2731 73.1551ZM102.561 79.0048C101.71 78.8755 100.863 79.2341 100.365 79.9211L100.27 80.0627C99.0321 82.0749 97.6577 83.2439 96.314 83.9022C94.963 84.564 93.506 84.7761 92.0113 84.6637C88.9464 84.4331 85.9132 82.8444 84.0799 81.4074C83.0912 80.6324 81.6568 80.7998 80.8763 81.7815C80.0957 82.7632 80.2644 84.1875 81.253 84.9626C83.547 86.7609 87.422 88.8606 91.6664 89.18C93.8262 89.3425 96.1248 89.0454 98.332 87.9642C99.5049 87.3897 100.612 86.6102 101.638 85.6128C103.428 88.4739 106.272 90.6661 109.646 91.6369C113.645 92.7877 118.223 92.1877 122.554 89.2792C123.502 91.4368 125.034 93.6627 127.339 95.2117C130.514 97.3457 134.712 97.9138 139.891 95.9877C140.27 98.503 141.203 101.268 143.086 103.455C144.549 105.153 146.559 106.465 149.187 106.988C150.733 107.296 152.438 107.319 154.309 107.037C153.834 109.541 153.777 112.401 154.692 115.065C155.447 117.264 156.862 119.305 159.171 120.809C160.64 121.766 162.412 122.464 164.503 122.879C163.222 125.326 162.238 128.309 162.41 131.312C162.545 133.649 163.386 135.993 165.294 137.985C166.553 139.299 168.211 140.392 170.291 141.244C168.769 143.337 167.411 145.955 167.03 148.737C166.733 150.899 167.025 153.207 168.341 155.364C169.114 156.631 170.195 157.771 171.593 158.773C170.194 159.994 168.855 161.564 167.959 163.455C166.269 167.023 166.309 171.441 169.788 176.098C170.539 177.102 171.967 177.312 172.979 176.567C173.99 175.821 174.201 174.403 173.451 173.398C170.935 170.031 171.138 167.385 172.087 165.383C173.132 163.177 175.249 161.449 176.92 160.574C177.693 160.169 178.165 159.359 178.135 158.492C178.104 157.624 177.577 156.85 176.777 156.499C174.278 155.403 172.939 154.157 172.243 153.017C171.558 151.895 171.368 150.669 171.549 149.348C171.932 146.563 173.941 143.614 175.839 141.73C176.421 141.152 176.644 140.307 176.423 139.52C176.201 138.732 175.569 138.124 174.77 137.929C171.601 137.157 169.708 136.02 168.599 134.863C167.519 133.736 167.044 132.447 166.964 131.054C166.794 128.098 168.423 124.699 170.176 122.411C170.692 121.738 170.787 120.836 170.423 120.072C170.059 119.307 169.297 118.808 168.446 118.776C165.221 118.657 163.082 117.939 161.673 117.021C160.29 116.121 159.469 114.939 159.01 113.603C158.047 110.798 158.683 107.249 159.718 104.754C160.058 103.933 159.884 102.989 159.271 102.342C158.659 101.694 157.721 101.462 156.874 101.748C153.881 102.758 151.68 102.865 150.084 102.547C148.524 102.236 147.398 101.492 146.553 100.511C144.77 98.44 144.15 95.1734 144.247 92.655C144.279 91.845 143.872 91.08 143.18 90.6492C142.489 90.2186 141.618 90.1878 140.897 90.5684C135.294 93.528 131.917 92.8188 129.896 91.4606C127.664 89.9603 126.384 87.2106 125.962 85.0239C125.805 84.2121 125.216 83.5494 124.424 83.2949C123.632 83.0406 122.763 83.2347 122.157 83.8017C118.115 87.5861 114.046 88.1867 110.916 87.2862C107.691 86.358 105.206 83.7807 104.429 80.6946C104.206 79.8092 103.47 79.1429 102.561 79.0048Z" fill="#F4D390"/>
<path d="M50.1393 209.373L51.7478 210.727L47.7553 223.148L47.8857 223.258L59.4422 217.203L61.0507 218.556L51.6847 229.685L50.424 228.624L57.54 220.169L57.4313 220.078L46.8376 225.606L45.6204 224.581L49.2586 213.199L49.1499 213.108L42.034 221.563L40.7733 220.502L50.1393 209.373ZM63.598 237.656L62.1147 236.706L69.115 225.772L66.5071 224.103C65.8452 223.679 65.2477 223.44 64.7148 223.385C64.1844 223.327 63.71 223.422 63.2917 223.672C62.8734 223.921 62.5073 224.291 62.1932 224.781C61.8792 225.272 61.6983 225.752 61.6505 226.222C61.6093 226.69 61.7268 227.148 62.003 227.594C62.2832 228.044 62.7503 228.478 63.4043 228.896L66.706 231.01L65.8482 232.35L62.4986 230.205C61.5496 229.598 60.8708 228.941 60.4624 228.236C60.0565 227.526 59.8848 226.798 59.9471 226.05C60.0095 225.303 60.2717 224.569 60.7338 223.847C61.1959 223.125 61.7557 222.576 62.4133 222.198C63.0709 221.821 63.8102 221.667 64.6311 221.738C65.4545 221.804 66.3447 222.143 67.3018 222.756L71.4409 225.406L63.598 237.656ZM61.3551 228.461L63.0299 229.534L56.54 233.137L54.8174 232.034L61.3551 228.461ZM82.2935 235.965L80.7123 235.189C80.842 234.689 80.8744 234.209 80.8096 233.75C80.749 233.293 80.6104 232.866 80.3935 232.47C80.1831 232.071 79.9073 231.714 79.5661 231.399C79.225 231.084 78.8376 230.82 78.404 230.607C77.6134 230.219 76.7992 230.067 75.9613 230.152C75.1276 230.239 74.3307 230.578 73.5707 231.17C72.8149 231.764 72.1596 232.627 71.6047 233.758C71.0498 234.888 70.7685 235.934 70.7608 236.896C70.7574 237.859 70.9764 238.697 71.4179 239.41C71.8637 240.124 72.4819 240.675 73.2725 241.063C73.706 241.276 74.1518 241.421 74.6098 241.498C75.0677 241.575 75.5177 241.577 75.9597 241.504C76.4081 241.429 76.8315 241.275 77.23 241.044C77.6349 240.81 77.9946 240.491 78.3092 240.086L79.8904 240.862C79.4439 241.471 78.9341 241.962 78.3608 242.334C77.7876 242.707 77.1765 242.964 76.5275 243.104C75.8805 243.24 75.2189 243.261 74.5427 243.166C73.8708 243.074 73.2054 242.866 72.5465 242.543C71.4329 241.996 70.576 241.238 69.9759 240.268C69.3758 239.299 69.0732 238.19 69.0682 236.943C69.0632 235.696 69.3986 234.384 70.0745 233.007C70.7503 231.629 71.5831 230.561 72.5727 229.802C73.5623 229.043 74.6242 228.604 75.7583 228.486C76.8924 228.367 78.0163 228.581 79.13 229.128C79.7888 229.451 80.3603 229.85 80.8445 230.325C81.333 230.802 81.7203 231.341 82.0064 231.94C82.2945 232.535 82.4665 233.173 82.5224 233.854C82.5804 234.532 82.5041 235.235 82.2935 235.965ZM95.346 243.399C94.8527 244.852 94.1642 246.018 93.2804 246.898C92.3965 247.778 91.3999 248.35 90.2904 248.613C89.1809 248.877 88.0388 248.809 86.8642 248.41C85.6895 248.011 84.7423 247.369 84.0225 246.485C83.3028 245.601 82.8602 244.54 82.6949 243.304C82.5296 242.068 82.6936 240.723 83.1869 239.271C83.6801 237.818 84.3686 236.652 85.2525 235.772C86.1363 234.892 87.1329 234.32 88.2424 234.057C89.3519 233.794 90.494 233.861 91.6686 234.26C92.8433 234.659 93.7905 235.301 94.5103 236.185C95.2301 237.07 95.6726 238.13 95.8379 239.366C96.0032 240.602 95.8392 241.947 95.346 243.399ZM93.7319 242.851C94.1369 241.659 94.2791 240.584 94.1587 239.629C94.0427 238.674 93.7178 237.871 93.1839 237.22C92.6545 236.57 91.9728 236.104 91.1389 235.82C90.305 235.537 89.4779 235.492 88.6578 235.683C87.8422 235.876 87.0956 236.315 86.418 237C85.7449 237.687 85.2058 238.626 84.8009 239.819C84.396 241.011 84.2515 242.085 84.3674 243.039C84.4879 243.995 84.8128 244.798 85.3422 245.448C85.8761 246.099 86.56 246.567 87.3939 246.85C88.2279 247.133 89.0526 247.178 89.8683 246.985C90.6884 246.793 91.435 246.354 92.1081 245.668C92.7857 244.983 93.327 244.044 93.7319 242.851ZM100.391 252.292C99.4568 252.087 98.6897 251.739 98.0897 251.249C97.4897 250.758 97.0725 250.174 96.8382 249.498C96.6039 248.821 96.571 248.099 96.7397 247.331C96.8697 246.739 97.1098 246.241 97.4601 245.838C97.8161 245.432 98.2592 245.081 98.7895 244.785C99.3254 244.486 99.9284 244.202 100.598 243.932L102.987 242.857C103.447 242.682 103.831 242.47 104.137 242.222C104.448 241.976 104.657 241.609 104.764 241.124C104.843 240.763 104.76 240.379 104.515 239.971C104.275 239.564 103.898 239.305 103.385 239.192C103.024 239.113 102.685 239.135 102.367 239.259C102.054 239.38 101.788 239.564 101.569 239.811C101.355 240.055 101.216 240.325 101.151 240.621C101.078 240.954 101.094 241.311 101.199 241.693C101.31 242.072 101.467 242.47 101.671 242.888C101.881 243.302 102.098 243.728 102.322 244.165L107.093 253.561L105.123 253.128L101.166 245.453C100.799 244.742 100.465 244.097 100.166 243.517C99.8668 242.937 99.6492 242.383 99.5134 241.854C99.3775 241.325 99.3705 240.783 99.4924 240.228C99.6326 239.589 99.8966 239.061 100.284 238.642C100.678 238.219 101.161 237.93 101.733 237.775C102.311 237.616 102.946 237.612 103.64 237.765C104.352 237.921 104.935 238.194 105.387 238.585C105.84 238.97 106.156 239.42 106.334 239.934C106.513 240.444 106.544 240.962 106.429 241.489C106.279 242.169 105.981 242.722 105.534 243.147C105.086 243.572 104.524 243.936 103.847 244.238L100.554 245.725C99.8118 246.057 99.2788 246.42 98.9547 246.814C98.6306 247.208 98.4472 247.502 98.4045 247.697C98.307 248.141 98.3317 248.58 98.4786 249.014C98.6255 249.449 98.8835 249.831 99.2526 250.159C99.6216 250.487 100.088 250.713 100.652 250.837C101.189 250.955 101.736 250.957 102.295 250.842C102.854 250.722 103.388 250.49 103.895 250.146C104.406 249.803 104.849 249.352 105.224 248.795C105.603 248.238 105.877 247.578 106.044 246.815L107.626 247.162C107.419 248.106 107.141 248.852 106.792 249.401C106.444 249.95 106.096 250.363 105.749 250.641C105.402 250.918 105.127 251.122 104.924 251.252C104.854 251.309 104.787 251.367 104.726 251.427C104.664 251.486 104.598 251.544 104.528 251.601C103.957 252.014 103.295 252.271 102.54 252.372C101.787 252.468 101.071 252.442 100.391 252.292ZM109.474 240.722L109.655 239.17L120.491 240.432L120.31 241.984L115.767 241.455L114.265 254.351L112.515 254.147L114.018 241.251L109.474 240.722ZM122.269 255.059L122.439 240.514L131.217 240.617L131.199 242.18L124.182 242.097L124.124 247.012L130.686 247.089L130.668 248.651L124.106 248.574L124.048 253.517L131.178 253.601L131.16 255.163L122.269 255.059ZM145.677 243.885L143.924 244.056C143.771 243.562 143.547 243.137 143.25 242.78C142.959 242.423 142.616 242.133 142.224 241.91C141.835 241.681 141.413 241.523 140.957 241.434C140.501 241.345 140.033 241.324 139.552 241.371C138.676 241.456 137.903 241.755 137.235 242.268C136.571 242.78 136.072 243.487 135.736 244.39C135.406 245.293 135.301 246.371 135.424 247.625C135.546 248.878 135.856 249.916 136.355 250.738C136.858 251.56 137.485 252.157 138.235 252.531C138.99 252.905 139.806 253.049 140.682 252.964C141.163 252.917 141.618 252.806 142.048 252.631C142.479 252.456 142.862 252.221 143.2 251.926C143.542 251.626 143.821 251.273 144.039 250.867C144.26 250.455 144.398 249.994 144.453 249.485L146.206 249.314C146.147 250.067 145.971 250.752 145.679 251.371C145.387 251.989 145.002 252.528 144.524 252.989C144.045 253.445 143.493 253.81 142.868 254.085C142.248 254.36 141.573 254.532 140.842 254.604C139.607 254.724 138.48 254.529 137.46 254.02C136.44 253.51 135.6 252.727 134.94 251.668C134.28 250.61 133.876 249.317 133.727 247.79C133.578 246.263 133.725 244.917 134.168 243.751C134.611 242.585 135.284 241.654 136.186 240.957C137.089 240.26 138.158 239.851 139.392 239.731C140.123 239.66 140.819 239.699 141.48 239.849C142.147 239.998 142.759 240.252 143.317 240.611C143.875 240.966 144.357 241.419 144.763 241.969C145.168 242.515 145.473 243.153 145.677 243.885ZM146.766 240.709L146.44 239.181L157.109 236.905L157.435 238.433L152.961 239.387L155.67 252.085L153.947 252.452L151.239 239.755L146.766 240.709ZM172.265 239.469C172.754 240.923 172.914 242.268 172.746 243.503C172.577 244.739 172.132 245.798 171.41 246.681C170.688 247.563 169.739 248.202 168.563 248.598C167.387 248.994 166.245 249.059 165.136 248.792C164.027 248.526 163.032 247.952 162.151 247.069C161.269 246.187 160.584 245.019 160.095 243.565C159.605 242.111 159.445 240.766 159.613 239.53C159.782 238.295 160.227 237.235 160.949 236.353C161.672 235.47 162.62 234.831 163.796 234.436C164.972 234.04 166.114 233.975 167.223 234.241C168.332 234.508 169.327 235.082 170.208 235.964C171.09 236.847 171.775 238.015 172.265 239.469ZM170.649 240.012C170.247 238.819 169.709 237.879 169.033 237.192C168.361 236.503 167.616 236.062 166.796 235.869C165.981 235.673 165.156 235.716 164.322 235.997C163.487 236.278 162.802 236.744 162.266 237.393C161.735 238.042 161.408 238.844 161.285 239.799C161.167 240.754 161.308 241.828 161.71 243.021C162.112 244.215 162.648 245.156 163.32 245.844C163.995 246.531 164.741 246.972 165.556 247.167C166.376 247.361 167.203 247.317 168.037 247.036C168.872 246.755 169.555 246.291 170.086 245.642C170.622 244.993 170.949 244.191 171.067 243.236C171.19 242.281 171.051 241.206 170.649 240.012ZM176.535 229.628L178.37 228.603L188.574 236.732L188.723 236.649L187.15 223.698L188.985 222.673L196.079 235.371L194.64 236.175L189.251 226.527L189.127 226.596L190.548 238.461L189.159 239.237L179.801 231.806L179.677 231.875L185.067 241.523L183.629 242.326L176.535 229.628ZM207.748 227.059L206.334 228.109L198.591 217.688L196.106 219.534C195.475 220.003 195.039 220.477 194.8 220.956C194.557 221.431 194.478 221.909 194.563 222.388C194.648 222.868 194.864 223.341 195.212 223.809C195.559 224.276 195.944 224.616 196.366 224.827C196.789 225.031 197.259 225.084 197.774 224.984C198.294 224.881 198.865 224.598 199.489 224.135L202.635 221.797L203.584 223.074L200.392 225.446C199.487 226.118 198.633 226.52 197.828 226.652C197.021 226.78 196.279 226.682 195.602 226.359C194.925 226.036 194.332 225.53 193.821 224.842C193.309 224.155 192.994 223.436 192.874 222.688C192.754 221.939 192.873 221.193 193.229 220.451C193.583 219.704 194.216 218.992 195.128 218.314L199.073 215.383L207.748 227.059ZM198.356 225.897L199.952 224.711L201.021 232.057L199.379 233.277L198.356 225.897ZM212.742 208.941L211.461 210.15C211.038 209.853 210.6 209.655 210.147 209.555C209.698 209.452 209.249 209.432 208.802 209.497C208.355 209.554 207.924 209.688 207.51 209.897C207.095 210.106 206.712 210.376 206.361 210.708C205.721 211.313 205.294 212.022 205.08 212.837C204.869 213.648 204.908 214.513 205.196 215.433C205.488 216.349 206.067 217.265 206.932 218.18C207.797 219.096 208.678 219.725 209.576 220.069C210.477 220.41 211.339 220.498 212.161 220.334C212.986 220.167 213.719 219.78 214.359 219.176C214.71 218.844 215.002 218.477 215.235 218.075C215.467 217.673 215.626 217.253 215.713 216.813C215.799 216.366 215.804 215.916 215.726 215.462C215.649 215.001 215.476 214.552 215.207 214.116L216.487 212.906C216.901 213.538 217.183 214.187 217.331 214.854C217.479 215.522 217.506 216.184 217.41 216.841C217.311 217.495 217.099 218.122 216.774 218.722C216.452 219.319 216.024 219.87 215.491 220.374C214.589 221.225 213.579 221.763 212.46 221.985C211.342 222.208 210.198 222.103 209.028 221.671C207.858 221.239 206.746 220.466 205.693 219.351C204.639 218.235 203.93 217.081 203.566 215.889C203.201 214.696 203.162 213.548 203.448 212.444C203.734 211.34 204.328 210.362 205.23 209.51C205.763 209.006 206.337 208.611 206.952 208.323C207.569 208.033 208.209 207.859 208.871 207.8C209.529 207.739 210.187 207.801 210.845 207.987C211.499 208.17 212.132 208.488 212.742 208.941ZM224.351 199.379C225.532 200.358 226.376 201.417 226.883 202.557C227.39 203.696 227.568 204.831 227.419 205.962C227.269 207.092 226.799 208.135 226.007 209.09C225.216 210.045 224.278 210.701 223.195 211.058C222.112 211.416 220.964 211.451 219.75 211.164C218.536 210.878 217.339 210.245 216.157 209.267C214.976 208.288 214.132 207.229 213.625 206.089C213.118 204.949 212.94 203.814 213.089 202.684C213.239 201.554 213.709 200.511 214.501 199.556C215.292 198.6 216.23 197.944 217.313 197.587C218.396 197.23 219.544 197.195 220.758 197.481C221.972 197.768 223.169 198.4 224.351 199.379ZM223.263 200.692C222.293 199.888 221.34 199.372 220.404 199.144C219.471 198.912 218.605 198.929 217.806 199.195C217.011 199.458 216.332 199.929 215.77 200.607C215.208 201.285 214.87 202.041 214.757 202.876C214.646 203.707 214.79 204.561 215.188 205.438C215.59 206.312 216.275 207.15 217.245 207.954C218.215 208.758 219.166 209.275 220.099 209.507C221.035 209.736 221.901 209.719 222.697 209.456C223.496 209.189 224.176 208.717 224.738 208.039C225.3 207.361 225.636 206.606 225.747 205.775C225.86 204.941 225.716 204.087 225.315 203.213C224.917 202.336 224.233 201.495 223.263 200.692ZM234.456 197.83C233.932 198.63 233.334 199.223 232.662 199.609C231.99 199.996 231.296 200.178 230.58 200.156C229.865 200.134 229.178 199.908 228.52 199.477C228.013 199.145 227.634 198.744 227.382 198.273C227.129 197.796 226.958 197.257 226.871 196.656C226.782 196.049 226.73 195.384 226.717 194.662L226.562 192.047C226.561 191.555 226.5 191.121 226.378 190.746C226.258 190.368 225.99 190.042 225.574 189.77C225.265 189.568 224.877 189.508 224.408 189.592C223.943 189.672 223.566 189.932 223.278 190.372C223.076 190.68 222.976 191.006 222.979 191.347C222.98 191.682 223.057 191.996 223.211 192.289C223.363 192.575 223.566 192.801 223.819 192.967C224.104 193.154 224.444 193.266 224.838 193.304C225.231 193.335 225.659 193.329 226.122 193.288C226.584 193.239 227.059 193.188 227.547 193.134L238.026 192.018L236.921 193.705L228.34 194.672C227.545 194.763 226.823 194.845 226.175 194.918C225.527 194.992 224.931 194.998 224.388 194.937C223.846 194.875 223.336 194.689 222.861 194.378C222.315 194.02 221.914 193.585 221.661 193.073C221.406 192.555 221.307 192.001 221.366 191.411C221.423 190.815 221.646 190.219 222.035 189.625C222.434 189.015 222.897 188.568 223.423 188.284C223.944 187.998 224.477 187.863 225.021 187.879C225.561 187.893 226.057 188.048 226.508 188.344C227.09 188.725 227.501 189.201 227.739 189.77C227.977 190.34 228.117 190.994 228.159 191.735L228.377 195.342C228.423 196.153 228.572 196.78 228.825 197.223C229.078 197.666 229.288 197.943 229.454 198.052C229.835 198.301 230.254 198.434 230.712 198.451C231.171 198.468 231.619 198.363 232.057 198.135C232.495 197.907 232.873 197.551 233.189 197.068C233.49 196.609 233.686 196.097 233.778 195.535C233.865 194.969 233.838 194.388 233.697 193.792C233.558 193.192 233.295 192.617 232.907 192.069C232.521 191.516 232.002 191.026 231.348 190.598L232.236 189.243C233.044 189.773 233.642 190.298 234.031 190.819C234.42 191.339 234.683 191.811 234.819 192.235C234.955 192.658 235.047 192.987 235.097 193.223C235.125 193.31 235.156 193.392 235.189 193.471C235.223 193.549 235.254 193.632 235.282 193.718C235.465 194.398 235.469 195.109 235.295 195.849C235.117 196.588 234.838 197.248 234.456 197.83ZM226.866 185.235L225.479 184.517L230.491 174.827L231.879 175.545L229.777 179.608L241.309 185.573L240.499 187.138L228.968 181.172L226.866 185.235ZM244.8 178.344L231.261 173.029L234.468 164.858L235.923 165.429L233.359 171.961L237.933 173.756L240.331 167.648L241.786 168.219L239.388 174.327L243.989 176.134L246.595 169.496L248.049 170.067L244.8 178.344ZM242.65 152.497L242.188 154.196C241.672 154.164 241.195 154.223 240.757 154.374C240.319 154.52 239.927 154.737 239.579 155.025C239.227 155.308 238.929 155.646 238.684 156.041C238.44 156.436 238.254 156.866 238.128 157.332C237.897 158.182 237.902 159.01 238.144 159.817C238.388 160.619 238.872 161.337 239.598 161.971C240.325 162.6 241.296 163.08 242.511 163.41C243.727 163.74 244.807 163.818 245.753 163.643C246.699 163.464 247.48 163.089 248.096 162.521C248.713 161.947 249.137 161.236 249.368 160.386C249.495 159.92 249.552 159.455 249.541 158.991C249.53 158.526 249.446 158.084 249.291 157.664C249.131 157.238 248.9 156.851 248.597 156.504C248.291 156.151 247.909 155.858 247.452 155.626L247.914 153.927C248.597 154.249 249.175 154.657 249.65 155.149C250.125 155.641 250.493 156.192 250.754 156.803C251.01 157.412 251.156 158.058 251.191 158.74C251.228 159.417 251.15 160.11 250.958 160.818C250.633 162.015 250.051 163 249.213 163.774C248.375 164.547 247.344 165.054 246.12 165.296C244.897 165.538 243.545 165.457 242.064 165.055C240.584 164.653 239.377 164.038 238.444 163.21C237.511 162.383 236.879 161.424 236.547 160.333C236.215 159.241 236.212 158.097 236.538 156.9C236.73 156.192 237.013 155.555 237.388 154.99C237.763 154.419 238.218 153.937 238.752 153.543C239.282 153.147 239.876 152.857 240.534 152.672C241.188 152.487 241.894 152.428 242.65 152.497ZM240.063 150.363L238.518 150.129L240.154 139.343L241.699 139.577L241.013 144.099L253.849 146.046L253.585 147.787L240.749 145.841L240.063 150.363ZM247.916 126.066C249.449 126.123 250.763 126.449 251.86 127.044C252.956 127.639 253.789 128.43 254.359 129.418C254.929 130.406 255.19 131.519 255.145 132.759C255.099 133.999 254.755 135.09 254.114 136.033C253.472 136.976 252.583 137.703 251.446 138.215C250.309 138.728 248.974 138.955 247.44 138.899C245.907 138.842 244.593 138.516 243.497 137.921C242.401 137.326 241.567 136.535 240.998 135.547C240.428 134.559 240.166 133.446 240.212 132.206C240.258 130.966 240.601 129.875 241.243 128.932C241.884 127.989 242.773 127.262 243.91 126.75C245.048 126.237 246.383 126.01 247.916 126.066ZM247.853 127.77C246.594 127.723 245.524 127.894 244.643 128.283C243.761 128.668 243.085 129.209 242.614 129.907C242.143 130.6 241.891 131.387 241.858 132.267C241.826 133.147 242.018 133.953 242.437 134.683C242.855 135.41 243.49 135.999 244.34 136.453C245.19 136.901 246.245 137.149 247.504 137.195C248.762 137.242 249.832 137.073 250.713 136.689C251.595 136.3 252.271 135.758 252.742 135.065C253.213 134.367 253.465 133.578 253.498 132.698C253.531 131.818 253.338 131.015 252.919 130.289C252.501 129.558 251.866 128.968 251.016 128.52C250.166 128.066 249.111 127.816 247.853 127.77ZM240.229 118.586L239.92 116.506L251.136 109.842L251.111 109.673L238.441 106.559L238.132 104.479L252.52 102.341L252.762 103.971L241.831 105.596L241.852 105.736L253.451 108.608L253.685 110.181L243.422 116.302L243.443 116.442L254.374 114.818L254.616 116.448L240.229 118.586ZM248.885 88.4872L249.366 90.1817L236.876 93.7258L237.722 96.7048C237.936 97.461 238.225 98.0361 238.588 98.4302C238.946 98.8256 239.365 99.0687 239.843 99.1593C240.322 99.2499 240.841 99.2157 241.401 99.0567C241.962 98.8977 242.415 98.6582 242.763 98.3382C243.104 98.015 243.319 97.5945 243.409 97.077C243.497 96.5549 243.435 95.9203 243.223 95.1733L242.153 91.4018L243.683 90.9675L244.769 94.7937C245.076 95.8778 245.149 96.8193 244.987 97.6184C244.821 98.4187 244.466 99.0779 243.924 99.5959C243.382 100.114 242.699 100.49 241.874 100.724C241.05 100.958 240.266 100.998 239.524 100.844C238.782 100.691 238.126 100.316 237.558 99.719C236.986 99.1236 236.544 98.2792 236.234 97.186L234.892 92.4579L248.885 88.4872ZM244.469 96.8575L243.926 94.9444L251.173 96.5496L251.732 98.5173L244.469 96.8575ZM233.735 77.3812L234.409 79.0085C233.981 79.2986 233.64 79.6373 233.385 80.0247C233.129 80.4077 232.951 80.8196 232.852 81.2605C232.746 81.6988 232.717 82.1489 232.765 82.6108C232.813 83.0727 232.929 83.5268 233.114 83.973C233.451 84.7866 233.962 85.4386 234.647 85.9288C235.33 86.4147 236.152 86.6865 237.114 86.7442C238.074 86.7976 239.136 86.5833 240.299 86.1013C241.463 85.6194 242.365 85.0201 243.006 84.3036C243.646 83.5827 244.035 82.809 244.174 81.9825C244.312 81.1516 244.212 80.3294 243.875 79.5157C243.69 79.0695 243.452 78.6662 243.159 78.3057C242.866 77.9453 242.53 77.6465 242.149 77.4093C241.763 77.1695 241.344 77.0049 240.892 76.9155C240.433 76.8235 239.952 76.8254 239.449 76.9212L238.775 75.2939C239.512 75.1319 240.219 75.1004 240.896 75.1995C241.572 75.2985 242.201 75.5098 242.78 75.8333C243.356 76.1587 243.866 76.5803 244.311 77.098C244.755 77.6114 245.117 78.2072 245.398 78.8852C245.872 80.0313 246.014 81.1665 245.824 82.2908C245.634 83.4151 245.129 84.447 244.308 85.3864C243.488 86.3258 242.369 87.0891 240.952 87.6761C239.534 88.2632 238.203 88.5146 236.959 88.4304C235.715 88.3462 234.628 87.9739 233.698 87.3134C232.769 86.6529 232.066 85.7496 231.592 84.6035C231.311 83.9255 231.146 83.2483 231.096 82.5718C231.045 81.891 231.11 81.2311 231.291 80.5923C231.468 79.9553 231.761 79.3626 232.169 78.8142C232.573 78.2676 233.095 77.79 233.735 77.3812ZM228.879 63.1613C230.211 62.4 231.5 61.9825 232.745 61.9089C233.99 61.8353 235.115 62.0674 236.121 62.6052C237.126 63.143 237.937 63.9504 238.552 65.0274C239.168 66.1044 239.452 67.2126 239.406 68.3519C239.359 69.4913 238.988 70.5787 238.293 71.6142C237.597 72.6497 236.584 73.5481 235.252 74.3094C233.92 75.0707 232.632 75.4882 231.387 75.5618C230.142 75.6354 229.016 75.4032 228.011 74.8654C227.005 74.3276 226.195 73.5202 225.579 72.4433C224.963 71.3663 224.679 70.2581 224.726 69.1188C224.773 67.9794 225.144 66.892 225.839 65.8565C226.534 64.821 227.548 63.9226 228.879 63.1613ZM229.725 64.6411C228.632 65.2662 227.814 65.9766 227.271 66.7725C226.725 67.5642 226.437 68.3809 226.405 69.2225C226.371 70.0599 226.573 70.861 227.01 71.6255C227.447 72.3901 228.036 72.9723 228.777 73.3722C229.516 73.7679 230.366 73.9337 231.327 73.8695C232.286 73.8012 233.313 73.4546 234.406 72.8295C235.5 72.2045 236.319 71.4961 236.864 70.7044C237.408 69.9085 237.696 69.0919 237.73 68.2544C237.762 67.4128 237.559 66.6097 237.122 65.8451C236.685 65.0806 236.097 64.5004 235.358 64.1047C234.617 63.7049 233.767 63.5391 232.808 63.6073C231.846 63.6715 230.819 64.0161 229.725 64.6411ZM230.992 53.1578C231.556 53.9304 231.9 54.6992 232.025 55.4641C232.149 56.2291 232.075 56.9427 231.802 57.6049C231.529 58.2671 231.075 58.8298 230.44 59.2931C229.951 59.6504 229.441 59.8639 228.912 59.9337C228.376 60.0024 227.811 59.9718 227.218 59.8418C226.619 59.7109 225.979 59.5244 225.298 59.2825L222.797 58.5053C222.336 58.3317 221.908 58.2361 221.515 58.2186C221.118 58.1973 220.719 58.3332 220.317 58.6262C220.019 58.8439 219.827 59.1866 219.74 59.6543C219.651 60.1181 219.761 60.5623 220.071 60.9869C220.288 61.2852 220.557 61.4933 220.878 61.6111C221.192 61.7279 221.513 61.7662 221.841 61.726C222.162 61.6848 222.446 61.5749 222.69 61.3962C222.966 61.1953 223.191 60.917 223.365 60.5613C223.532 60.2045 223.678 59.802 223.803 59.3538C223.92 58.9046 224.04 58.4421 224.162 57.9664L226.813 47.7673L228.002 49.3967L225.88 57.7673C225.685 58.5432 225.507 59.2474 225.347 59.8798C225.187 60.5122 224.983 61.0716 224.734 61.558C224.485 62.0444 224.131 62.455 223.672 62.7899C223.144 63.1751 222.596 63.3961 222.028 63.4531C221.454 63.509 220.901 63.4056 220.369 63.1429C219.831 62.8792 219.352 62.4605 218.934 61.8868C218.504 61.2978 218.249 60.7073 218.168 60.1152C218.084 59.526 218.146 58.9799 218.353 58.4769C218.557 57.9767 218.877 57.5675 219.313 57.2493C219.875 56.839 220.464 56.6228 221.081 56.6006C221.698 56.5784 222.36 56.6784 223.068 56.9008L226.52 57.9689C227.295 58.212 227.935 58.2933 228.439 58.2128C228.943 58.1323 229.275 58.0334 229.435 57.9162C229.803 57.6483 230.075 57.3028 230.253 56.88C230.431 56.4571 230.491 56.0004 230.432 55.51C230.373 55.0196 230.173 54.5411 229.832 54.0745C229.509 53.6308 229.1 53.267 228.605 52.983C228.107 52.7018 227.554 52.5222 226.946 52.4442C226.335 52.3623 225.705 52.4061 225.055 52.5756C224.402 52.7413 223.76 53.0544 223.129 53.5149L222.175 52.2069C222.955 51.6375 223.657 51.2627 224.282 51.0824C224.906 50.9021 225.441 50.823 225.884 50.8449C226.328 50.8668 226.669 50.8964 226.908 50.9336C226.998 50.9376 227.086 50.9378 227.172 50.9342C227.257 50.9306 227.345 50.9308 227.436 50.9348C228.137 51.0037 228.803 51.2501 229.435 51.6742C230.063 52.101 230.582 52.5955 230.992 53.1578ZM216.521 55.8039L215.357 56.8461L208.08 48.7187L209.244 47.6764L212.295 51.084L221.968 42.4238L223.143 43.736L213.47 52.3963L216.521 55.8039ZM216.436 36.5839L206.679 47.3714L200.169 41.4828L201.217 40.324L206.421 45.031L209.718 41.3861L204.851 36.9839L205.899 35.8251L210.766 40.2272L214.082 36.5612L208.794 31.7779L209.842 30.6191L216.436 36.5839ZM191.483 29.484L192.912 30.5138C192.701 30.9857 192.588 31.4533 192.575 31.9167C192.559 32.3774 192.624 32.8213 192.771 33.2485C192.912 33.6767 193.124 34.0748 193.408 34.4425C193.691 34.8103 194.029 35.1353 194.421 35.4177C195.135 35.9326 195.913 36.2184 196.753 36.2753C197.589 36.3295 198.432 36.1282 199.28 35.6716C200.125 35.2123 200.915 34.4717 201.652 33.4499C202.388 32.428 202.84 31.4439 203.009 30.4973C203.174 29.5479 203.098 28.6851 202.782 27.9088C202.462 27.1297 201.945 26.4828 201.23 25.9679C200.839 25.6855 200.423 25.468 199.985 25.3154C199.546 25.1627 199.103 25.0855 198.655 25.0836C198.2 25.0828 197.757 25.1633 197.325 25.3249C196.887 25.4877 196.479 25.7422 196.101 26.0885L194.672 25.0587C195.214 24.5331 195.799 24.1346 196.427 23.8631C197.054 23.5916 197.7 23.441 198.363 23.4113C199.024 23.3855 199.679 23.4757 200.33 23.6821C200.977 23.8857 201.598 24.202 202.194 24.6311C203.2 25.3563 203.918 26.2472 204.347 27.3036C204.777 28.36 204.889 29.5034 204.686 30.7338C204.482 31.9642 203.931 33.2018 203.035 34.4464C202.138 35.691 201.138 36.6046 200.035 37.1873C198.932 37.77 197.812 38.0249 196.674 37.9519C195.536 37.8789 194.464 37.4797 193.458 36.7545C192.862 36.3254 192.365 35.8362 191.968 35.2869C191.566 34.7348 191.274 34.1394 191.092 33.5007C190.908 32.8659 190.845 32.2079 190.904 31.5267C190.96 30.8493 191.153 30.1685 191.483 29.484ZM188.553 31.1369L187.783 32.4968L178.289 27.1242L179.058 25.7643L183.039 28.0169L189.433 16.7176L190.966 17.585L184.572 28.8843L188.553 31.1369ZM168.643 15.1645C169.239 13.7513 170.01 12.6378 170.956 11.824C171.901 11.0101 172.936 10.512 174.062 10.3295C175.187 10.147 176.321 10.2971 177.464 10.7798C178.607 11.2625 179.505 11.9709 180.159 12.905C180.813 13.8391 181.178 14.9286 181.254 16.1736C181.329 17.4185 181.068 18.7475 180.472 20.1608C179.875 21.574 179.104 22.6875 178.159 23.5013C177.213 24.3151 176.178 24.8133 175.053 24.9958C173.927 25.1782 172.793 25.0281 171.65 24.5455C170.507 24.0628 169.609 23.3544 168.955 22.4203C168.301 21.4861 167.936 20.3966 167.86 19.1517C167.785 17.9068 168.046 16.5777 168.643 15.1645ZM170.213 15.8277C169.723 16.9879 169.503 18.0491 169.554 19.0113C169.601 19.9716 169.867 20.7959 170.352 21.4841C170.834 22.1704 171.48 22.6849 172.291 23.0276C173.102 23.3702 173.924 23.4757 174.756 23.3438C175.583 23.2102 176.359 22.8262 177.085 22.192C177.806 21.5559 178.411 20.6578 178.901 19.4975C179.391 18.3373 179.613 17.277 179.566 16.3167C179.515 15.3546 179.249 14.5303 178.768 13.844C178.283 13.1558 177.634 12.6403 176.823 12.2977C176.012 11.955 175.192 11.8505 174.365 11.9842C173.533 12.116 172.757 12.5 172.036 13.136C171.31 13.7703 170.703 14.6675 170.213 15.8277ZM158.926 19.7024L156.872 19.2539L154.618 6.40344L154.452 6.36707L147.046 17.1084L144.992 16.6599L148.096 2.44933L149.705 2.80085L147.348 13.5976L147.487 13.6279L154.285 3.80086L155.839 4.14026L157.922 15.9067L158.061 15.937L160.419 5.14027L162.029 5.49179L158.926 19.7024ZM133.837 0.954538L135.592 1.10262L134.5 14.0396L137.586 14.2999C138.369 14.366 139.009 14.2989 139.506 14.0984C140.003 13.9027 140.378 13.597 140.631 13.1813C140.885 12.7655 141.036 12.2675 141.085 11.6871C141.134 11.1068 141.07 10.5977 140.893 10.1599C140.711 9.72642 140.394 9.37653 139.941 9.11026C139.484 8.84359 138.868 8.67761 138.094 8.61232L134.188 8.28272L134.322 6.69745L138.285 7.03182C139.408 7.12656 140.314 7.39075 141.005 7.82438C141.695 8.26274 142.187 8.82691 142.48 9.51689C142.773 10.2069 142.884 10.9789 142.812 11.8328C142.74 12.6868 142.501 13.4341 142.095 14.0746C141.69 14.7151 141.108 15.1958 140.349 15.5166C139.589 15.8422 138.644 15.9572 137.511 15.8617L132.614 15.4485L133.837 0.954538ZM140.11 8.0411L138.128 7.87391L142.188 1.65912L144.226 1.83108L140.11 8.0411ZM118.096 11.2046L119.856 11.149C119.976 11.652 120.173 12.0911 120.445 12.4662C120.713 12.8415 121.035 13.1534 121.412 13.4021C121.785 13.6556 122.196 13.8415 122.645 13.96C123.094 14.0784 123.56 14.13 124.043 14.1148C124.923 14.087 125.713 13.8393 126.414 13.3719C127.11 12.9046 127.655 12.2313 128.048 11.3519C128.438 10.4727 128.612 9.40368 128.572 8.14484C128.533 6.886 128.291 5.83014 127.847 4.97726C127.398 4.12452 126.812 3.48695 126.088 3.06453C125.36 2.64226 124.555 2.44504 123.675 2.47286C123.192 2.48812 122.73 2.56903 122.29 2.7156C121.849 2.86217 121.451 3.07135 121.095 3.34316C120.734 3.61984 120.432 3.95389 120.188 4.3453C119.94 4.74159 119.772 5.1922 119.684 5.69713L117.923 5.75277C118.032 5.00559 118.253 4.33304 118.584 3.73515C118.916 3.13725 119.336 2.62421 119.843 2.19603C120.351 1.77259 120.926 1.44414 121.567 1.21068C122.204 0.977381 122.889 0.849138 123.623 0.825954C124.863 0.786767 125.975 1.0548 126.96 1.63004C127.944 2.20529 128.731 3.04259 129.32 4.14196C129.909 5.24133 130.228 6.55767 130.276 8.091C130.325 9.62432 130.09 10.9582 129.571 12.0925C129.053 13.2269 128.32 14.1122 127.374 14.7485C126.428 15.3848 125.335 15.7225 124.095 15.7617C123.361 15.7849 122.669 15.7001 122.019 15.5075C121.364 15.3151 120.77 15.0212 120.236 14.6259C119.703 14.2354 119.252 13.7522 118.883 13.1765C118.514 12.6054 118.252 11.9481 118.096 11.2046ZM103.071 10.6959C102.832 9.18047 102.9 7.82776 103.273 6.63776C103.647 5.44776 104.263 4.47829 105.123 3.72935C105.983 2.9804 107.026 2.50944 108.251 2.31646C109.476 2.12347 110.613 2.25119 111.662 2.69961C112.71 3.14803 113.595 3.88106 114.316 4.8987C115.037 5.91634 115.517 7.18287 115.756 8.69829C115.994 10.2137 115.927 11.5664 115.553 12.7564C115.18 13.9464 114.563 14.9159 113.704 15.6648C112.844 16.4138 111.801 16.8847 110.576 17.0777C109.35 17.2707 108.213 17.143 107.165 16.6946C106.116 16.2461 105.232 15.5131 104.511 14.4955C103.79 13.4778 103.31 12.2113 103.071 10.6959ZM104.755 10.4307C104.951 11.6749 105.324 12.6921 105.875 13.4825C106.422 14.2736 107.083 14.8334 107.858 15.1618C108.629 15.491 109.449 15.5871 110.319 15.45C111.189 15.313 111.943 14.9691 112.58 14.4182C113.212 13.8681 113.669 13.1323 113.951 12.2108C114.227 11.29 114.268 10.2076 114.072 8.96345C113.876 7.71932 113.505 6.70169 112.958 5.91058C112.407 5.12021 111.746 4.56044 110.976 4.23127C110.2 3.90284 109.377 3.80712 108.507 3.94412C107.637 4.08113 106.886 4.4247 106.254 4.97484C105.617 5.52572 105.16 6.26154 104.883 7.18229C104.602 8.10377 104.559 9.18658 104.755 10.4307ZM94.473 5.16589C95.3956 4.91348 96.2364 4.86504 96.9957 5.02056C97.7549 5.17609 98.3956 5.49906 98.9175 5.98949C99.4395 6.47992 99.8042 7.10419 100.012 7.86232C100.172 8.44689 100.19 8.99898 100.067 9.51859C99.941 10.044 99.7117 10.5608 99.3795 11.069C99.044 11.5829 98.6422 12.115 98.1742 12.6652L96.5588 14.7271C96.2327 15.0961 95.9916 15.4616 95.8353 15.8234C95.6745 16.1865 95.6597 16.6078 95.7909 17.0873C95.8883 17.4436 96.1402 17.7453 96.5466 17.9924C96.9483 18.2408 97.4027 18.2957 97.9096 18.157C98.2659 18.0595 98.556 17.882 98.78 17.6243C99.0007 17.3725 99.1506 17.086 99.2297 16.765C99.3054 16.4497 99.3033 16.1459 99.2233 15.8537C99.1334 15.5248 98.9531 15.2158 98.6825 14.9266C98.4086 14.6432 98.0843 14.3638 97.7095 14.0883C97.3313 13.8187 96.9416 13.5424 96.5402 13.2596L87.949 7.15705L89.8946 6.62475L96.9649 11.5823C97.6206 12.0411 98.2156 12.4575 98.7499 12.8317C99.2843 13.2058 99.7346 13.5956 100.101 14.001C100.467 14.4065 100.725 14.8832 100.875 15.4312C101.047 16.0615 101.059 16.6522 100.911 17.2034C100.759 17.7604 100.465 18.2407 100.031 18.6443C99.5933 19.0537 99.0318 19.3521 98.3468 19.5395C97.6435 19.7319 97.0009 19.7605 96.419 19.6252C95.8383 19.4944 95.3497 19.2428 94.9532 18.8702C94.558 18.5021 94.2892 18.0578 94.1467 17.5372C93.9631 16.8658 93.9704 16.2379 94.1689 15.6535C94.3673 15.069 94.6961 14.4857 95.1554 13.9035L97.3806 11.0563C97.8834 10.418 98.1867 9.84902 98.2905 9.34936C98.3943 8.8497 98.42 8.50397 98.3675 8.31215C98.2476 7.87372 98.0216 7.49621 97.6895 7.17963C97.3574 6.86305 96.9518 6.64515 96.4724 6.52594C95.9931 6.40674 95.4749 6.42335 94.9177 6.5758C94.3879 6.72075 93.9025 6.97384 93.4613 7.33507C93.0214 7.70087 92.657 8.15402 92.368 8.69453C92.0744 9.23629 91.8913 9.84107 91.8188 10.5089C91.7417 11.178 91.8062 11.8893 92.0124 12.6428L90.4505 13.0702C90.1956 12.1385 90.0948 11.3487 90.1483 10.7009C90.2018 10.053 90.3176 9.5255 90.4958 9.11839C90.6741 8.71128 90.8229 8.40302 90.9423 8.19363C90.9784 8.11013 91.0099 8.02788 91.0368 7.94688C91.0637 7.86588 91.0952 7.78363 91.1313 7.70013C91.4447 7.06949 91.9119 6.53423 92.5328 6.09437C93.1549 5.65907 93.8017 5.34957 94.473 5.16589ZM91.8247 19.6285L92.3905 21.085L82.2217 25.0353L81.6559 23.5788L85.9194 21.9226L81.2182 9.82068L82.86 9.18288L87.5612 21.2848L91.8247 19.6285ZM73.8177 12.9321L80.4555 25.8747L72.6444 29.8807L71.9314 28.4904L78.1751 25.2882L75.9323 20.915L70.093 23.9098L69.3799 22.5194L75.2193 19.5247L72.9635 15.1262L66.6186 18.3803L65.9055 16.99L73.8177 12.9321ZM58.3306 33.7375L59.8014 32.7684C60.1671 33.1341 60.5642 33.4055 60.9927 33.5825C61.4172 33.762 61.8553 33.8589 62.307 33.8732C62.7573 33.894 63.2048 33.8373 63.6494 33.7031C64.094 33.5689 64.5179 33.369 64.9212 33.1033C65.6566 32.6187 66.2003 31.9939 66.5524 31.2289C66.9006 30.4664 67.0123 29.6075 66.8874 28.6521C66.7586 27.6994 66.3477 26.6971 65.6547 25.6454C64.9617 24.5937 64.2029 23.8208 63.3782 23.3265C62.5496 22.8348 61.7163 22.5986 60.8784 22.6177C60.0365 22.6394 59.2478 22.8926 58.5124 23.3771C58.1092 23.6429 57.7582 23.9535 57.4595 24.3091C57.1608 24.6647 56.9308 25.0515 56.7697 25.4696C56.6072 25.8942 56.5247 26.337 56.5222 26.7979C56.5184 27.2654 56.611 27.7373 56.8002 28.2137L55.3294 29.1829C55.0311 28.4892 54.8667 27.8008 54.8363 27.1178C54.8058 26.4347 54.8947 25.7779 55.103 25.1474C55.3138 24.5208 55.6315 23.9401 56.0559 23.4053C56.4764 22.8731 56.993 22.405 57.6058 22.0012C58.6417 21.3187 59.7296 20.9647 60.8697 20.9393C62.0097 20.9139 63.1184 21.2154 64.1958 21.8437C65.2732 22.4719 66.234 23.4266 67.078 24.7076C67.9221 25.9886 68.4203 27.248 68.5725 28.4859C68.7248 29.7238 68.5643 30.8615 68.0912 31.899C67.6181 32.9365 66.8637 33.7966 65.8278 34.4791C65.215 34.8829 64.5811 35.173 63.9261 35.3494C63.2672 35.5284 62.607 35.5892 61.9455 35.5318C61.2865 35.4784 60.6492 35.3029 60.0336 35.0054C59.4206 34.7119 58.8529 34.2893 58.3306 33.7375ZM58.8561 37.0508L59.8587 38.2492L51.4919 45.2495L50.4893 44.0512L53.9972 41.1161L45.6661 31.1588L47.017 30.0285L55.3481 39.9859L58.8561 37.0508ZM36.8771 50.0525C35.7666 48.9941 34.998 47.8789 34.5714 46.707C34.1447 45.535 34.0452 44.3903 34.2729 43.273C34.5006 42.1557 35.0424 41.148 35.8983 40.25C36.7542 39.352 37.7347 38.7625 38.8398 38.4815C39.945 38.2004 41.0931 38.2449 42.2842 38.6148C43.4752 38.9848 44.626 39.6989 45.7365 40.7574C46.847 41.8158 47.6156 42.931 48.0422 44.1029C48.4689 45.2749 48.5684 46.4195 48.3407 47.5369C48.1129 48.6542 47.5712 49.6619 46.7153 50.5599C45.8594 51.4578 44.8789 52.0474 43.7738 52.3284C42.6686 52.6095 41.5205 52.565 40.3294 52.1951C39.1384 51.8251 37.9876 51.1109 36.8771 50.0525ZM38.0531 48.8187C38.9648 49.6876 39.8796 50.2685 40.7976 50.5612C41.7123 50.8574 42.5774 50.9003 43.3928 50.6898C44.205 50.4828 44.9149 50.0605 45.5225 49.423C46.1301 48.7855 46.5195 48.0545 46.6906 47.2299C46.8584 46.4087 46.7741 45.5467 46.4376 44.6438C46.0979 43.7444 45.4722 42.8602 44.5605 41.9912C43.6488 41.1223 42.7356 40.5397 41.8209 40.2435C40.9029 39.9507 40.0379 39.9079 39.2257 40.1149C38.4102 40.3254 37.6987 40.7494 37.0911 41.3869C36.4835 42.0244 36.0957 42.7537 35.9279 43.5749C35.7568 44.3995 35.8411 45.2615 36.1809 46.1609C36.5173 47.0638 37.1414 47.9497 38.0531 48.8187ZM37.673 60.7547L36.5244 62.5154L23.7111 60.0591L23.618 60.2019L31.0299 70.9386L29.8813 72.6994L17.6986 64.7525L18.5989 63.3724L27.8548 69.4102L27.9324 69.2912L21.1599 59.4464L22.0291 58.1139L33.7684 60.3446L33.846 60.2256L24.5901 54.1878L25.4903 52.8078L37.673 60.7547ZM11.2401 77.5553L12.0013 75.9669L23.7094 81.5774L25.0476 78.7849C25.3872 78.076 25.5515 77.4538 25.5404 76.9182C25.5336 76.3847 25.3808 75.9255 25.0821 75.5409C24.7834 75.1562 24.3714 74.8381 23.8462 74.5864C23.321 74.3347 22.8224 74.2139 22.3503 74.2239C21.8804 74.2403 21.4407 74.4128 21.0311 74.7416C20.6195 75.0747 20.2459 75.5913 19.9103 76.2916L18.2161 79.8271L16.7814 79.1396L18.5002 75.5529C18.9872 74.5366 19.5559 73.7827 20.2062 73.291C20.8609 72.8014 21.5628 72.5419 22.312 72.5123C23.0612 72.4828 23.8222 72.6532 24.5951 73.0236C25.3679 73.3939 25.9818 73.8824 26.4367 74.4889C26.8917 75.0954 27.1345 75.8103 27.1653 76.6336C27.2003 77.459 26.9723 78.3841 26.4812 79.4088L24.3573 83.841L11.2401 77.5553ZM20.0913 74.2047L19.2319 75.998L14.8618 69.9975L15.7457 68.1529L20.0913 74.2047ZM15.2637 95.9115L15.8333 94.2448C16.3464 94.31 16.8265 94.2814 17.2736 94.159C17.7192 94.0411 18.1249 93.8495 18.4908 93.5842C18.8596 93.325 19.1787 93.0062 19.448 92.6279C19.7174 92.2496 19.9302 91.8319 20.0863 91.3749C20.3711 90.5416 20.4185 89.7146 20.2285 88.8942C20.037 88.0782 19.5994 87.3307 18.9158 86.6518C18.2306 85.9773 17.2921 85.4365 16.1003 85.0292C14.9085 84.6219 13.8352 84.4754 12.8806 84.5895C11.9244 84.7081 11.1209 85.0314 10.4701 85.5596C9.8177 86.0922 9.34914 86.7752 9.06436 87.6086C8.9082 88.0656 8.82088 88.5261 8.80242 88.9901C8.78395 89.4542 8.83899 89.9008 8.96753 90.33C9.09901 90.7652 9.30488 91.1658 9.58512 91.5318C9.86831 91.9037 10.2305 92.2202 10.6718 92.481L10.1022 94.1478C9.44167 93.7819 8.89024 93.3383 8.44796 92.8169C8.00568 92.2955 7.67384 91.7218 7.45245 91.0957C7.23555 90.4712 7.13116 89.8176 7.13929 89.1349C7.14589 88.4566 7.26784 87.7703 7.50515 87.0758C7.90629 85.9019 8.54977 84.9559 9.4356 84.2379C10.3214 83.5198 11.3826 83.0794 12.6191 82.9165C13.8557 82.7536 15.1998 82.9202 16.6514 83.4162C18.1031 83.9123 19.2681 84.6031 20.1463 85.4886C21.0246 86.3742 21.5943 87.3719 21.8555 88.4819C22.1167 89.5919 22.0467 90.7339 21.6456 91.9077C21.4082 92.6022 21.0847 93.2197 20.6748 93.7601C20.2634 94.3051 19.7787 94.7573 19.2204 95.117C18.6667 95.4782 18.0554 95.7296 17.3865 95.8713C16.7221 96.0146 16.0145 96.028 15.2637 95.9115ZM9.45584 109.782C7.95439 109.467 6.71368 108.924 5.73371 108.152C4.75374 107.381 4.06627 106.46 3.67131 105.391C3.27634 104.321 3.20614 103.179 3.46069 101.965C3.71525 100.751 4.23821 99.7331 5.02957 98.9121C5.82094 98.0911 6.82028 97.5241 8.0276 97.2112C9.23492 96.8983 10.5893 96.8993 12.0908 97.2141C13.5922 97.5289 14.8329 98.072 15.8129 98.8435C16.7929 99.615 17.4803 100.536 17.8753 101.605C18.2702 102.675 18.3404 103.817 18.0859 105.031C17.8313 106.245 17.3084 107.263 16.517 108.084C15.7256 108.905 14.7263 109.472 13.519 109.785C12.3117 110.097 10.9573 110.097 9.45584 109.782ZM9.8056 108.113C11.0383 108.372 12.1219 108.384 13.0564 108.149C13.9899 107.919 14.7478 107.5 15.3301 106.892C15.9115 106.288 16.2925 105.555 16.4732 104.693C16.6539 103.831 16.5999 103.004 16.311 102.213C16.0211 101.427 15.4954 100.739 14.7338 100.148C13.9713 99.5628 12.9737 99.1408 11.741 98.8823C10.5083 98.6239 9.42521 98.6097 8.49167 98.8397C7.55716 99.0743 6.79924 99.4935 6.2179 100.097C5.63558 100.706 5.25407 101.441 5.07336 102.303C4.89264 103.165 4.94722 103.989 5.23709 104.775C5.52599 105.567 6.05171 106.255 6.81425 106.84C7.57582 107.431 8.57293 107.855 9.8056 108.113ZM1.24729 115.879C1.3362 114.927 1.58722 114.123 2.00034 113.467C2.41346 112.811 2.94148 112.325 3.58441 112.01C4.22733 111.694 4.94008 111.573 5.72266 111.646C6.3261 111.702 6.84929 111.879 7.29224 112.178C7.73947 112.481 8.14232 112.878 8.50078 113.368C8.86352 113.863 9.21988 114.426 9.56986 115.058L10.9302 117.296C11.1606 117.732 11.4176 118.086 11.7011 118.36C11.9842 118.638 12.3733 118.801 12.8683 118.847C13.236 118.881 13.6071 118.752 13.9816 118.459C14.3557 118.17 14.5672 117.764 14.616 117.241C14.6504 116.873 14.5865 116.539 14.4243 116.239C14.2664 115.944 14.0512 115.702 13.7785 115.515C13.5102 115.333 13.2252 115.228 12.9235 115.2C12.584 115.168 12.2313 115.228 11.8653 115.379C11.5035 115.536 11.1277 115.741 10.7379 115.995C10.3523 116.253 9.9564 116.521 9.5502 116.797L0.811495 122.686L0.998995 120.678L8.13026 115.808C8.79066 115.356 9.39009 114.946 9.92854 114.578C10.467 114.21 10.9905 113.926 11.4989 113.726C12.0074 113.526 12.5445 113.453 13.1102 113.505C13.7608 113.566 14.3178 113.763 14.7812 114.097C15.249 114.435 15.5951 114.879 15.8197 115.428C16.0485 115.981 16.1299 116.612 16.0639 117.319C15.9961 118.045 15.7964 118.657 15.4647 119.154C15.1377 119.651 14.73 120.019 14.2415 120.259C13.7578 120.499 13.2473 120.594 12.7098 120.544C12.0168 120.479 11.4318 120.251 10.9548 119.86C10.4778 119.468 10.0478 118.955 9.66481 118.32L7.78443 115.234C7.36431 114.538 6.93874 114.054 6.50773 113.781C6.07672 113.507 5.76221 113.361 5.56421 113.343C5.11163 113.301 4.6787 113.379 4.2654 113.578C3.8521 113.778 3.50521 114.08 3.22472 114.487C2.94424 114.894 2.77715 115.384 2.72345 115.96C2.6724 116.506 2.73816 117.05 2.92075 117.59C3.10805 118.131 3.40369 118.631 3.80767 119.092C4.2112 119.558 4.71267 119.943 5.31208 120.246C5.91105 120.554 6.59946 120.744 7.37733 120.817L7.2268 122.429C6.26508 122.339 5.49048 122.155 4.90302 121.877C4.31555 121.598 3.86273 121.304 3.54455 120.994C3.22637 120.684 2.99035 120.436 2.83648 120.25C2.77104 120.187 2.70517 120.128 2.63885 120.075C2.57254 120.021 2.50667 119.962 2.44123 119.899C1.96152 119.384 1.62524 118.758 1.43241 118.022C1.2443 117.286 1.18259 116.572 1.24729 115.879ZM13.8465 123.469L15.4089 123.456L15.4969 134.365L13.9344 134.378L13.8975 129.804L0.915016 129.909L0.900809 128.147L13.8833 128.043L13.8465 123.469ZM1.19649 137.923L15.6541 136.327L16.6173 145.053L15.0642 145.224L14.2943 138.249L9.40922 138.789L10.1292 145.312L8.57616 145.483L7.85615 138.96L2.94281 139.502L3.72516 146.59L2.17209 146.761L1.19649 137.923ZM15.1487 159.794L14.7636 158.075C15.2352 157.863 15.6296 157.587 15.9469 157.249C16.2652 156.916 16.5111 156.541 16.6844 156.123C16.8635 155.71 16.969 155.271 17.001 154.808C17.0331 154.344 16.9963 153.877 16.8907 153.406C16.6981 152.547 16.3065 151.817 15.7159 151.216C15.1263 150.621 14.3626 150.212 13.425 149.99C12.4883 149.773 11.4055 149.802 10.1766 150.078C8.94756 150.353 7.95587 150.789 7.20147 151.385C6.44811 151.985 5.93193 152.681 5.65292 153.471C5.37496 154.266 5.33226 155.094 5.52483 155.953C5.63044 156.424 5.79659 156.862 6.02328 157.268C6.24997 157.673 6.53023 158.025 6.86407 158.324C7.20356 158.626 7.58838 158.86 8.01853 159.026C8.45434 159.195 8.9285 159.276 9.44103 159.268L9.82618 160.986C9.07181 161.02 8.36986 160.929 7.72033 160.716C7.0708 160.502 6.48811 160.187 5.97226 159.768C5.46103 159.349 5.03053 158.846 4.68078 158.26C4.33206 157.678 4.07746 157.029 3.91698 156.313C3.64572 155.103 3.70018 153.96 4.08037 152.885C4.46055 151.81 5.13526 150.88 6.10451 150.095C7.07376 149.31 8.30686 148.75 9.80383 148.414C11.3008 148.079 12.655 148.059 13.8666 148.356C15.0781 148.652 16.0851 149.205 16.8877 150.015C17.6903 150.825 18.2273 151.835 18.4985 153.046C18.659 153.762 18.7057 154.457 18.6386 155.132C18.5725 155.812 18.3955 156.451 18.1074 157.049C17.8239 157.646 17.4341 158.18 16.9378 158.65C16.4461 159.12 15.8497 159.501 15.1487 159.794ZM18.432 160.469L19.9071 159.953L23.5045 170.252L22.0294 170.768L20.5211 166.45L8.26432 170.731L7.6835 169.068L19.9403 164.787L18.432 160.469ZM22.821 185.631C21.4378 186.294 20.1226 186.618 18.8755 186.601C17.6284 186.585 16.5228 186.273 15.5586 185.664C14.5945 185.055 13.8442 184.191 13.3078 183.073C12.7714 181.954 12.5675 180.828 12.6963 179.695C12.8251 178.562 13.2735 177.504 14.0415 176.522C14.8095 175.539 15.8852 174.716 17.2684 174.053C18.6516 173.389 19.9668 173.066 21.2139 173.082C22.461 173.098 23.5666 173.411 24.5308 174.02C25.4949 174.629 26.2452 175.492 26.7817 176.611C27.3181 177.729 27.5219 178.855 27.3931 179.988C27.2643 181.121 26.8159 182.179 26.0479 183.162C25.2799 184.144 24.2043 184.967 22.821 185.631ZM22.084 184.094C23.2196 183.549 24.0869 182.9 24.686 182.145C25.2871 181.395 25.6337 180.601 25.7259 179.764C25.8201 178.931 25.6768 178.117 25.2959 177.323C24.9151 176.529 24.3695 175.906 23.659 175.454C22.9506 175.006 22.1146 174.779 21.1511 174.774C20.1896 174.773 19.1411 175.045 18.0055 175.589C16.8698 176.134 16.0015 176.782 15.4004 177.532C14.8013 178.287 14.4547 179.08 14.3605 179.913C14.2683 180.75 14.4127 181.566 14.7935 182.36C15.1743 183.154 15.7189 183.775 16.4274 184.223C17.1378 184.675 17.9738 184.902 18.9353 184.903C19.8988 184.908 20.9483 184.639 22.084 184.094ZM33.1058 188.658L34.3497 190.353L27.5408 201.482L27.6417 201.619L40.3001 198.46L41.544 200.155L29.8178 208.761L28.8429 207.433L37.752 200.894L37.668 200.78L26.0694 203.654L25.1281 202.372L31.3478 192.168L31.2637 192.054L22.3546 198.593L21.3797 197.264L33.1058 188.658Z" fill="black"/>
</svg>
