<svg width="22" height="12" viewBox="0 0 22 12" fill="none" xmlns="http://www.w3.org/2000/svg">
<path d="M15.4463 0.219671C15.7392 -0.073222 16.2149 -0.0732219 16.5078 0.219672L21.2803 4.99311C21.5732 5.286 21.5732 5.76076 21.2803 6.05366L16.5078 10.8271C16.2149 11.12 15.7392 11.12 15.4463 10.8271C15.1534 10.5342 15.1534 10.0585 15.4463 9.76557L18.9395 6.27338L0.749999 6.27338C0.335786 6.27338 -5.19081e-07 5.93759 -4.82869e-07 5.52338C-4.46658e-07 5.10917 0.335786 4.77338 0.75 4.77338L18.9395 4.77338L15.4463 1.28119C15.1534 0.988301 15.1534 0.512565 15.4463 0.219671Z" fill="black"/>
</svg>
