<svg width="24" height="24" viewBox="0 0 24 24" fill="none" xmlns="http://www.w3.org/2000/svg">
<rect width="24" height="24" fill="black"/>
<path d="M16.6963 6.69629C16.9892 6.4034 17.4649 6.4034 17.7578 6.6963L22.5303 11.4697C22.8232 11.7626 22.8232 12.2374 22.5303 12.5303L17.7578 17.3037C17.4649 17.5966 16.9892 17.5966 16.6963 17.3037C16.4034 17.0108 16.4034 16.5351 16.6963 16.2422L20.1895 12.75L2 12.75C1.58579 12.75 1.25 12.4142 1.25 12C1.25 11.5858 1.58579 11.25 2 11.25L20.1895 11.25L16.6963 7.75782C16.4034 7.46492 16.4034 6.98919 16.6963 6.69629Z" fill="white"/>
</svg>
