<svg width="35" height="35" viewBox="0 0 35 35" fill="none" xmlns="http://www.w3.org/2000/svg">
<path d="M23.4614 11.56C23.9878 11.56 24.4872 11.797 24.8254 12.2074L29.6152 18.0187C30.2253 18.762 30.6921 19.5861 31.0152 20.4912C31.3384 21.3964 31.5 22.3264 31.5 23.2811C31.5 25.5676 30.712 27.5091 29.1358 29.1055C27.5608 30.7019 25.6474 31.5 23.3958 31.5H11.6042C9.35372 31.5 7.44035 30.7019 5.86421 29.1055C4.28804 27.5091 3.5 25.5676 3.5 23.2811C3.5 22.3252 3.66159 21.3952 3.98476 20.4912C4.30792 19.5861 4.77467 18.762 5.38482 18.0187L10.1746 12.2074C10.5128 11.797 11.0122 11.56 11.5386 11.56H23.4614ZM17.5 16.6765C15.1312 16.6765 13.211 18.6306 13.211 21.0412C13.211 23.4517 15.1312 25.4059 17.5 25.4059C19.8688 25.4059 21.789 23.4517 21.789 21.0412C21.789 18.6306 19.8688 16.6765 17.5 16.6765ZM24.836 3.5C25.3727 3.50001 25.7752 3.72387 26.0436 4.17169C26.3119 4.61953 26.3224 5.08166 26.075 5.55786L24.334 9.13844C24.0338 9.75595 23.4153 10.1466 22.7383 10.1466H12.2615C11.5846 10.1466 10.9663 9.75597 10.666 9.1386L8.92497 5.55963C8.67763 5.08225 8.68809 4.61953 8.95642 4.17169C9.22475 3.72387 9.62733 3.50001 10.164 3.5H24.836Z" fill="white"/>
</svg>
