<svg width="257" height="257" viewBox="0 0 257 257" fill="none" xmlns="http://www.w3.org/2000/svg">
<path d="M85.7521 73.3915C96.8412 72.8076 123.614 73.4562 142.122 82.7742C165.256 94.4218 174.705 108.658 179.919 127.423C185.132 146.189 183.177 169.16 182.851 174.337C182.525 179.514 177.638 181.779 174.054 183.073C170.469 184.367 164.93 177.573 157.762 176.926C150.593 176.278 137.56 178.543 126.807 174.661C116.055 170.778 105.302 163.337 92.9205 150.395C80.5388 137.453 79.8871 128.394 79.2354 112.217C78.5838 96.0397 74.9996 89.8922 74.0221 86.9803C73.0446 84.0684 73.0446 82.1271 76.9546 78.5682C80.8645 75.0093 82.4984 73.5628 85.7521 73.3915ZM103.04 79.2412C102.189 79.1118 101.342 79.4705 100.844 80.1574L100.749 80.299C99.5111 82.3112 98.1367 83.4803 96.793 84.1385C95.442 84.8003 93.9851 85.0124 92.4903 84.9C89.4254 84.6694 86.3922 83.0808 84.5589 81.6437C83.5702 80.8687 82.1358 81.0362 81.3553 82.0178C80.5747 82.9995 80.7434 84.4238 81.732 85.1989C84.026 86.9972 87.901 89.097 92.1454 89.4164C94.3052 89.5788 96.6039 89.2817 98.811 88.2005C99.9839 87.626 101.091 86.8465 102.117 85.8492C103.907 88.7103 106.751 90.9024 110.125 91.8733C114.124 93.024 118.702 92.424 123.033 89.5156C123.981 91.6731 125.513 93.899 127.818 95.448C130.993 97.582 135.191 98.1501 140.37 96.224C140.749 98.7394 141.682 101.504 143.565 103.691C145.028 105.39 147.038 106.701 149.666 107.225C151.212 107.533 152.917 107.555 154.788 107.273C154.313 109.777 154.256 112.637 155.171 115.301C155.926 117.5 157.341 119.541 159.65 121.045C161.119 122.002 162.891 122.701 164.982 123.115C163.701 125.563 162.717 128.545 162.889 131.548C163.024 133.886 163.865 136.229 165.773 138.222C167.032 139.536 168.69 140.628 170.77 141.48C169.248 143.573 167.89 146.192 167.509 148.973C167.212 151.135 167.504 153.444 168.82 155.601C169.593 156.867 170.674 158.007 172.072 159.009C170.673 160.23 169.334 161.801 168.438 163.691C166.748 167.259 166.788 171.677 170.267 176.334C171.018 177.338 172.446 177.548 173.458 176.803C174.469 176.058 174.68 174.639 173.93 173.634C171.414 170.267 171.617 167.622 172.566 165.619C173.611 163.413 175.728 161.686 177.399 160.81C178.172 160.405 178.644 159.596 178.614 158.728C178.583 157.861 178.056 157.087 177.256 156.736C174.757 155.639 173.418 154.394 172.722 153.253C172.037 152.132 171.847 150.905 172.028 149.584C172.411 146.8 174.42 143.851 176.318 141.966C176.9 141.388 177.123 140.543 176.902 139.756C176.68 138.968 176.048 138.36 175.249 138.165C172.08 137.393 170.187 136.256 169.078 135.099C167.998 133.972 167.523 132.683 167.443 131.29C167.273 128.335 168.902 124.935 170.655 122.647C171.171 121.974 171.266 121.072 170.902 120.308C170.538 119.544 169.776 119.044 168.925 119.012C165.7 118.894 163.561 118.175 162.152 117.258C160.769 116.357 159.948 115.175 159.489 113.839C158.526 111.034 159.162 107.485 160.197 104.991C160.537 104.169 160.363 103.226 159.75 102.578C159.138 101.93 158.2 101.698 157.353 101.984C154.36 102.995 152.159 103.101 150.563 102.783C149.003 102.473 147.877 101.728 147.032 100.747C145.249 98.6764 144.629 95.4098 144.726 92.8913C144.758 92.0813 144.351 91.3163 143.659 90.8856C142.968 90.4549 142.097 90.4241 141.376 90.8047C135.773 93.7643 132.396 93.0551 130.375 91.697C128.143 90.1967 126.863 87.447 126.441 85.2602C126.284 84.4484 125.695 83.7857 124.903 83.5313C124.111 83.2769 123.242 83.471 122.636 84.0381C118.594 87.8224 114.525 88.423 111.395 87.5225C108.17 86.5943 105.685 84.017 104.908 80.9309C104.685 80.0456 103.949 79.3792 103.04 79.2412Z" fill="#F4D390"/>
<path d="M51.4625 208.864L53.3304 210.399L48.9075 224.736L49.0589 224.86L62.266 217.741L64.134 219.276L53.5145 232.2L52.0504 230.997L60.1188 221.178L59.9925 221.074L47.8855 227.575L46.4719 226.413L50.5015 213.275L50.3753 213.172L42.307 222.991L40.843 221.788L51.4625 208.864ZM67.5605 241.078L65.8235 240.036L73.5053 227.233L70.4517 225.401C69.6766 224.936 68.9818 224.681 68.3674 224.636C67.7557 224.586 67.2137 224.712 66.7411 225.013C66.2686 225.313 65.8601 225.751 65.5155 226.325C65.1709 226.9 64.979 227.458 64.9398 227.999C64.908 228.539 65.0584 229.061 65.3908 229.565C65.7279 230.072 66.2793 230.555 67.0451 231.015L70.9111 233.335L69.9698 234.903L66.0477 232.55C64.9365 231.883 64.1343 231.151 63.6413 230.354C63.151 229.552 62.9292 228.72 62.9759 227.859C63.0226 226.998 63.2995 226.145 63.8066 225.3C64.3137 224.455 64.9389 223.804 65.6822 223.349C66.4255 222.893 67.2702 222.692 68.2161 222.745C69.1649 222.794 70.1996 223.154 71.3201 223.826L76.1667 226.734L67.5605 241.078ZM64.675 230.583L66.636 231.76L59.2962 236.119L57.2791 234.909L64.675 230.583ZM89.063 238.183L87.2022 237.382C87.3223 236.8 87.3319 236.247 87.231 235.723C87.1351 235.202 86.9512 234.72 86.6793 234.277C86.4146 233.831 86.0772 233.437 85.6672 233.095C85.2573 232.753 84.7972 232.472 84.2869 232.253C83.3565 231.852 82.4125 231.725 81.455 231.871C80.5025 232.018 79.6068 232.454 78.768 233.178C77.9342 233.904 77.2312 234.932 76.6591 236.263C76.0869 237.594 75.8241 238.811 75.8707 239.916C75.9223 241.023 76.2221 241.973 76.7703 242.765C77.3234 243.56 78.0652 244.158 78.9956 244.558C79.5059 244.777 80.0262 244.918 80.5566 244.98C81.0871 245.042 81.604 245.019 82.1075 244.909C82.6181 244.797 83.0956 244.596 83.54 244.307C83.9915 244.015 84.3862 243.628 84.7243 243.145L86.5851 243.945C86.1074 244.67 85.55 245.263 84.9132 245.724C84.2763 246.186 83.5892 246.515 82.8518 246.714C82.1166 246.908 81.3579 246.97 80.5758 246.9C79.7987 246.833 79.0225 246.632 78.2471 246.299C76.9365 245.735 75.9087 244.914 75.1635 243.835C74.4184 242.756 74.007 241.5 73.9294 240.068C73.8517 238.636 74.1614 237.109 74.8583 235.489C75.5552 233.868 76.45 232.593 77.5429 231.664C78.6358 230.735 79.8301 230.17 81.1259 229.969C82.4217 229.767 83.7249 229.948 85.0354 230.512C85.8108 230.845 86.4902 231.271 87.0737 231.788C87.6622 232.308 88.1381 232.904 88.5012 233.576C88.8664 234.242 89.1008 234.966 89.2043 235.745C89.3099 236.519 89.2628 237.332 89.063 238.183ZM104.544 245.73C104.087 247.434 103.385 248.824 102.437 249.901C101.488 250.977 100.388 251.708 99.1343 252.093C97.8809 252.479 96.5652 252.487 95.1873 252.117C93.8093 251.748 92.6742 251.082 91.7818 250.122C90.8894 249.161 90.3019 247.977 90.0194 246.571C89.7369 245.165 89.824 243.61 90.281 241.906C90.7379 240.202 91.4404 238.812 92.3885 237.735C93.3367 236.659 94.4374 235.928 95.6908 235.543C96.9443 235.157 98.2599 235.149 99.6379 235.519C101.016 235.888 102.151 236.553 103.043 237.514C103.936 238.475 104.523 239.659 104.806 241.065C105.088 242.471 105.001 244.026 104.544 245.73ZM102.651 245.223C103.026 243.824 103.108 242.58 102.898 241.492C102.694 240.406 102.261 239.509 101.599 238.801C100.943 238.095 100.125 237.611 99.1471 237.349C98.1689 237.087 97.2164 237.096 96.2897 237.378C95.3682 237.661 94.5444 238.22 93.8183 239.057C93.0974 239.896 92.5494 241.014 92.1743 242.413C91.7992 243.812 91.714 245.055 91.9188 246.142C92.1288 247.23 92.5619 248.127 93.2183 248.832C93.8799 249.54 94.6998 250.025 95.678 250.287C96.6562 250.549 97.6061 250.539 98.5275 250.256C99.4542 249.975 100.278 249.415 100.999 248.576C101.725 247.739 102.276 246.622 102.651 245.223ZM111.154 255.468C110.064 255.321 109.152 254.994 108.418 254.489C107.684 253.983 107.151 253.353 106.819 252.6C106.486 251.846 106.381 251.021 106.502 250.126C106.595 249.435 106.823 248.842 107.187 248.347C107.556 247.848 108.031 247.404 108.611 247.015C109.197 246.621 109.861 246.239 110.604 245.866L113.24 244.409C113.751 244.165 114.171 243.886 114.499 243.573C114.832 243.261 115.037 242.822 115.113 242.255C115.17 241.834 115.039 241.402 114.72 240.957C114.406 240.514 113.95 240.252 113.351 240.171C112.93 240.114 112.543 240.172 112.19 240.344C111.843 240.512 111.556 240.747 111.328 241.052C111.106 241.352 110.972 241.674 110.925 242.02C110.873 242.408 110.925 242.816 111.082 243.244C111.244 243.667 111.462 244.108 111.735 244.568C112.014 245.024 112.303 245.491 112.601 245.971L118.955 256.29L116.656 255.98L111.398 247.556C110.91 246.776 110.467 246.067 110.069 245.431C109.672 244.795 109.37 244.18 109.164 243.587C108.959 242.993 108.9 242.373 108.987 241.725C109.088 240.98 109.34 240.35 109.745 239.833C110.156 239.311 110.682 238.935 111.324 238.702C111.971 238.466 112.699 238.402 113.509 238.511C114.34 238.623 115.033 238.882 115.588 239.286C116.144 239.685 116.548 240.171 116.801 240.744C117.054 241.311 117.139 241.902 117.056 242.517C116.949 243.311 116.659 243.972 116.186 244.502C115.714 245.031 115.104 245.501 114.356 245.911L110.722 247.926C109.903 248.376 109.326 248.842 108.992 249.324C108.657 249.807 108.475 250.161 108.444 250.388C108.374 250.906 108.444 251.407 108.653 251.891C108.863 252.376 109.194 252.789 109.648 253.13C110.102 253.471 110.658 253.687 111.317 253.776C111.943 253.86 112.57 253.81 113.199 253.626C113.829 253.436 114.419 253.12 114.968 252.678C115.522 252.236 115.987 251.678 116.364 251.003C116.746 250.33 116.997 249.548 117.117 248.657L118.963 248.906C118.814 250.007 118.566 250.889 118.219 251.55C117.871 252.212 117.511 252.719 117.14 253.07C116.768 253.421 116.472 253.68 116.252 253.848C116.176 253.92 116.106 253.993 116.041 254.067C115.976 254.141 115.906 254.214 115.83 254.286C115.215 254.813 114.48 255.169 113.625 255.356C112.771 255.538 111.947 255.575 111.154 255.468ZM120.357 241.327L120.385 239.531L132.929 239.729L132.901 241.526L127.642 241.443L127.405 256.371L125.38 256.339L125.616 241.411L120.357 241.327ZM136.748 256.225L135.058 239.584L145.101 238.563L145.283 240.351L137.255 241.167L137.826 246.79L145.334 246.027L145.516 247.815L138.008 248.577L138.582 254.233L146.74 253.404L146.922 255.192L136.748 256.225ZM161.928 240.158L159.955 240.617C159.707 240.076 159.387 239.625 158.995 239.263C158.609 238.901 158.175 238.621 157.693 238.426C157.216 238.224 156.711 238.107 156.178 238.074C155.644 238.041 155.107 238.088 154.566 238.214C153.58 238.443 152.744 238.9 152.059 239.585C151.38 240.269 150.917 241.151 150.671 242.231C150.43 243.31 150.473 244.555 150.801 245.966C151.13 247.377 151.64 248.513 152.332 249.375C153.03 250.236 153.835 250.823 154.746 251.136C155.663 251.449 156.615 251.49 157.601 251.261C158.142 251.135 158.645 250.94 159.109 250.675C159.572 250.411 159.975 250.085 160.315 249.698C160.66 249.305 160.925 248.86 161.112 248.364C161.302 247.862 161.391 247.316 161.377 246.726L163.349 246.267C163.395 247.135 163.297 247.943 163.058 248.691C162.818 249.44 162.461 250.113 161.985 250.711C161.507 251.302 160.933 251.802 160.262 252.21C159.596 252.616 158.852 252.915 158.03 253.106C156.641 253.429 155.326 253.377 154.086 252.95C152.847 252.523 151.771 251.756 150.859 250.648C149.948 249.541 149.292 248.128 148.892 246.41C148.493 244.692 148.457 243.134 148.787 241.739C149.116 240.343 149.743 239.179 150.667 238.249C151.591 237.318 152.748 236.691 154.137 236.368C154.959 236.177 155.759 236.117 156.535 236.188C157.318 236.257 158.054 236.455 158.745 236.781C159.434 237.101 160.052 237.545 160.597 238.111C161.141 238.672 161.585 239.354 161.928 240.158ZM162.571 236.395L161.939 234.713L173.682 230.3L174.314 231.982L169.391 233.832L174.643 247.808L172.747 248.521L167.494 234.545L162.571 236.395ZM191.234 230.394C192.064 231.951 192.501 233.446 192.544 234.879C192.586 236.313 192.282 237.599 191.63 238.736C190.978 239.874 190.022 240.779 188.763 241.45C187.505 242.122 186.221 242.411 184.913 242.319C183.605 242.227 182.368 241.764 181.201 240.93C180.034 240.096 179.035 238.901 178.205 237.344C177.375 235.787 176.938 234.292 176.895 232.859C176.853 231.425 177.157 230.139 177.809 229.002C178.461 227.864 179.417 226.959 180.676 226.288C181.934 225.616 183.218 225.327 184.526 225.419C185.834 225.511 187.071 225.974 188.238 226.808C189.405 227.642 190.404 228.837 191.234 230.394ZM189.505 231.316C188.823 230.039 188.034 229.074 187.137 228.423C186.245 227.769 185.316 227.41 184.35 227.345C183.389 227.278 182.461 227.483 181.567 227.96C180.674 228.436 179.985 229.094 179.5 229.933C179.02 230.769 178.801 231.74 178.843 232.847C178.889 233.952 179.253 235.143 179.934 236.421C180.616 237.699 181.403 238.665 182.295 239.319C183.191 239.97 184.12 240.329 185.082 240.396C186.048 240.461 186.978 240.255 187.872 239.778C188.765 239.302 189.452 238.645 189.932 237.809C190.416 236.971 190.635 235.999 190.589 234.894C190.548 233.787 190.186 232.594 189.505 231.316ZM193.966 218.452L195.815 216.894L209.11 223.847L209.26 223.721L204.658 209.441L206.507 207.883L217.287 220.673L215.838 221.894L207.648 212.176L207.523 212.282L211.716 225.368L210.317 226.547L198.13 220.198L198.005 220.304L206.195 230.021L204.746 231.242L193.966 218.452ZM228.548 208.406L227.214 209.931L215.976 200.101L213.631 202.782C213.036 203.462 212.662 204.101 212.509 204.697C212.352 205.291 212.38 205.846 212.592 206.365C212.804 206.883 213.162 207.363 213.666 207.804C214.17 208.245 214.685 208.532 215.211 208.667C215.737 208.794 216.277 208.738 216.833 208.501C217.391 208.259 217.965 207.802 218.553 207.13L221.521 203.736L222.898 204.94L219.887 208.383C219.034 209.359 218.171 210.018 217.299 210.362C216.422 210.703 215.565 210.773 214.725 210.575C213.886 210.376 213.096 209.953 212.354 209.304C211.612 208.655 211.083 207.924 210.766 207.112C210.45 206.3 210.401 205.433 210.621 204.511C210.837 203.586 211.375 202.632 212.236 201.648L215.957 197.394L228.548 208.406ZM217.708 209.386L219.214 207.664L222.203 215.66L220.654 217.431L217.708 209.386ZM229.543 186.742L228.422 188.429C227.87 188.206 227.328 188.097 226.795 188.103C226.265 188.104 225.757 188.198 225.273 188.386C224.787 188.566 224.339 188.828 223.929 189.17C223.518 189.512 223.16 189.914 222.852 190.376C222.292 191.22 221.997 192.126 221.968 193.094C221.943 194.057 222.211 195.017 222.773 195.972C223.337 196.922 224.223 197.798 225.429 198.6C226.636 199.402 227.786 199.878 228.882 200.031C229.98 200.179 230.968 200.054 231.846 199.657C232.728 199.255 233.449 198.633 234.009 197.789C234.316 197.327 234.548 196.84 234.704 196.329C234.861 195.819 234.93 195.306 234.913 194.791C234.894 194.268 234.782 193.763 234.577 193.274C234.371 192.777 234.061 192.319 233.646 191.9L234.767 190.213C235.395 190.813 235.879 191.468 236.218 192.177C236.557 192.886 236.759 193.621 236.822 194.382C236.88 195.14 236.805 195.898 236.596 196.655C236.391 197.407 236.054 198.135 235.587 198.838C234.798 200.026 233.805 200.89 232.61 201.429C231.415 201.969 230.106 202.148 228.683 201.968C227.26 201.787 225.814 201.209 224.345 200.233C222.875 199.256 221.782 198.147 221.064 196.906C220.346 195.664 220.004 194.387 220.038 193.077C220.073 191.766 220.484 190.516 221.274 189.328C221.741 188.625 222.281 188.033 222.895 187.552C223.512 187.066 224.184 186.705 224.91 186.468C225.631 186.228 226.385 186.127 227.17 186.165C227.951 186.2 228.742 186.392 229.543 186.742ZM239.765 172.876C241.359 173.633 242.599 174.575 243.486 175.702C244.373 176.829 244.893 178.044 245.045 179.347C245.198 180.649 244.968 181.944 244.356 183.233C243.743 184.521 242.884 185.518 241.777 186.222C240.671 186.926 239.401 187.289 237.967 187.313C236.533 187.337 235.019 186.97 233.425 186.212C231.832 185.455 230.592 184.513 229.705 183.386C228.818 182.259 228.298 181.044 228.145 179.741C227.993 178.439 228.223 177.144 228.835 175.855C229.448 174.567 230.307 173.57 231.414 172.866C232.52 172.162 233.79 171.799 235.224 171.775C236.658 171.751 238.172 172.118 239.765 172.876ZM238.924 174.646C237.616 174.024 236.408 173.718 235.3 173.728C234.194 173.733 233.233 173.997 232.418 174.52C231.605 175.038 230.981 175.754 230.547 176.669C230.112 177.583 229.949 178.522 230.058 179.484C230.17 180.442 230.572 181.353 231.264 182.218C231.958 183.079 232.959 183.82 234.267 184.442C235.575 185.064 236.782 185.372 237.888 185.367C238.996 185.357 239.956 185.094 240.769 184.576C241.584 184.053 242.209 183.334 242.644 182.419C243.079 181.505 243.241 180.569 243.129 179.611C243.02 178.649 242.618 177.737 241.924 176.877C241.232 176.011 240.232 175.268 238.924 174.646ZM250.535 168.131C250.194 169.177 249.709 170.015 249.079 170.646C248.449 171.277 247.734 171.687 246.933 171.878C246.131 172.069 245.301 172.025 244.442 171.744C243.779 171.528 243.237 171.196 242.816 170.75C242.391 170.296 242.04 169.749 241.762 169.108C241.481 168.461 241.224 167.739 240.992 166.941L240.034 164.085C239.886 163.539 239.688 163.076 239.439 162.697C239.192 162.313 238.797 162.032 238.253 161.854C237.85 161.723 237.4 161.774 236.906 162.007C236.413 162.236 236.073 162.638 235.886 163.212C235.754 163.616 235.741 164.007 235.846 164.385C235.949 164.756 236.129 165.082 236.387 165.361C236.642 165.633 236.935 165.823 237.266 165.931C237.639 166.053 238.05 166.075 238.499 165.998C238.944 165.915 239.418 165.78 239.919 165.594C240.418 165.402 240.929 165.202 241.455 164.996L252.751 160.606L252.031 162.812L242.797 166.465C241.942 166.804 241.165 167.112 240.468 167.389C239.771 167.665 239.111 167.851 238.49 167.946C237.869 168.041 237.248 167.987 236.627 167.785C235.913 167.551 235.338 167.189 234.903 166.698C234.464 166.199 234.188 165.614 234.075 164.941C233.959 164.262 234.028 163.534 234.281 162.757C234.541 161.96 234.921 161.325 235.419 160.852C235.912 160.377 236.462 160.067 237.071 159.922C237.675 159.775 238.271 159.798 238.862 159.991C239.622 160.239 240.221 160.644 240.656 161.204C241.092 161.764 241.444 162.449 241.713 163.258L243.039 167.197C243.334 168.083 243.689 168.735 244.103 169.151C244.517 169.566 244.833 169.81 245.05 169.881C245.547 170.043 246.052 170.065 246.567 169.946C247.081 169.828 247.547 169.576 247.964 169.191C248.382 168.806 248.694 168.298 248.9 167.666C249.096 167.066 249.16 166.44 249.092 165.787C249.019 165.133 248.815 164.497 248.479 163.877C248.144 163.253 247.679 162.694 247.084 162.202C246.49 161.705 245.766 161.317 244.912 161.038L245.49 159.268C246.546 159.612 247.368 160.015 247.956 160.476C248.545 160.938 248.978 161.383 249.256 161.811C249.534 162.24 249.736 162.578 249.862 162.825C249.919 162.913 249.978 162.995 250.039 163.072C250.1 163.149 250.159 163.231 250.216 163.319C250.623 164.019 250.842 164.806 250.871 165.681C250.896 166.554 250.784 167.37 250.535 168.131ZM238.284 156.536L236.522 156.185L238.97 143.881L240.732 144.231L239.706 149.39L254.349 152.304L253.954 154.29L239.311 151.377L238.284 156.536ZM255.881 143.07L239.204 141.778L239.984 131.713L241.775 131.852L241.152 139.897L246.787 140.334L247.37 132.809L249.161 132.948L248.578 140.473L254.246 140.912L254.879 132.736L256.671 132.875L255.881 143.07ZM244.567 115.43L244.665 117.453C244.088 117.601 243.587 117.835 243.161 118.155C242.735 118.47 242.382 118.847 242.104 119.286C241.819 119.719 241.614 120.196 241.486 120.714C241.358 121.233 241.308 121.769 241.335 122.324C241.384 123.336 241.684 124.24 242.235 125.036C242.785 125.827 243.57 126.441 244.589 126.877C245.607 127.307 246.84 127.488 248.286 127.418C249.733 127.348 250.942 127.049 251.915 126.523C252.886 125.991 253.608 125.304 254.08 124.464C254.552 123.618 254.763 122.689 254.714 121.677C254.687 121.123 254.585 120.593 254.408 120.089C254.231 119.586 253.983 119.131 253.664 118.727C253.339 118.318 252.949 117.977 252.494 117.704C252.034 117.427 251.512 117.242 250.93 117.15L250.832 115.127C251.693 115.238 252.471 115.478 253.165 115.848C253.859 116.218 254.457 116.691 254.959 117.266C255.455 117.842 255.844 118.496 256.125 119.23C256.405 119.957 256.566 120.743 256.607 121.586C256.676 123.011 256.389 124.295 255.746 125.438C255.104 126.581 254.156 127.502 252.903 128.2C251.651 128.899 250.143 129.29 248.381 129.376C246.619 129.461 245.081 129.216 243.766 128.642C242.452 128.068 241.42 127.243 240.67 126.167C239.92 125.091 239.511 123.841 239.442 122.416C239.401 121.573 239.486 120.775 239.694 120.024C239.903 119.267 240.23 118.578 240.674 117.957C241.113 117.336 241.66 116.808 242.315 116.373C242.964 115.938 243.715 115.624 244.567 115.43ZM240.98 114.114L239.212 114.431L236.994 102.084L238.762 101.766L239.692 106.943L254.387 104.303L254.745 106.297L240.05 108.937L240.98 114.114ZM240.257 84.839C241.938 84.3035 243.487 84.1442 244.905 84.3611C246.322 84.578 247.532 85.1099 248.533 85.9567C249.535 86.8035 250.252 87.9065 250.685 89.2658C251.118 90.6251 251.171 91.9397 250.844 93.2097C250.517 94.4796 249.838 95.6132 248.807 96.6103C247.776 97.6074 246.42 98.3737 244.739 98.9092C243.058 99.4448 241.509 99.6041 240.091 99.3872C238.673 99.1702 237.464 98.6384 236.463 97.7916C235.461 96.9448 234.744 95.8417 234.311 94.4824C233.878 93.1231 233.825 91.8085 234.152 90.5386C234.479 89.2686 235.158 88.1351 236.189 87.138C237.22 86.1409 238.576 85.3746 240.257 84.839ZM240.852 86.7067C239.472 87.1464 238.38 87.7484 237.578 88.5126C236.774 89.2716 236.253 90.1205 236.015 91.0593C235.775 91.9929 235.809 92.9422 236.117 93.9072C236.424 94.8722 236.946 95.6687 237.684 96.2967C238.419 96.9196 239.335 97.3106 240.432 97.4699C241.527 97.624 242.764 97.4812 244.144 97.0415C245.524 96.6018 246.616 96.0025 247.42 95.2434C248.223 94.4792 248.744 93.6303 248.983 92.6967C249.221 91.7579 249.187 90.806 248.879 89.841C248.572 88.876 248.05 88.0821 247.315 87.4593C246.577 86.8312 245.661 86.4402 244.566 86.2861C243.47 86.1269 242.232 86.2671 240.852 86.7067ZM229.016 80.0177L227.811 77.9217L237.016 66.074L236.919 65.9041L222.048 67.8946L220.843 65.7985L235.346 57.4631L236.29 59.1059L225.271 65.4389L225.353 65.5805L238.976 63.7796L239.888 65.3658L231.474 76.2308L231.555 76.3724L242.574 70.0394L243.518 71.6823L229.016 80.0177ZM225.336 44.1966L226.593 45.7846L214.888 55.0529L217.098 57.8448C217.659 58.5534 218.219 59.0371 218.779 59.2959C219.333 59.558 219.885 59.6318 220.433 59.5172C220.981 59.4026 221.518 59.1374 222.043 58.7217C222.568 58.3059 222.945 57.8516 223.173 57.3586C223.393 56.8648 223.436 56.3233 223.303 55.7342C223.167 55.1408 222.821 54.4941 222.267 53.7939L219.468 50.2593L220.903 49.1236L223.742 52.7095C224.546 53.7255 225.038 54.6935 225.218 55.6137C225.394 56.5373 225.308 57.3936 224.961 58.1827C224.613 58.9718 224.053 59.6723 223.28 60.2841C222.508 60.8959 221.693 61.2838 220.837 61.4479C219.98 61.612 219.119 61.5022 218.253 61.1186C217.382 60.7384 216.541 60.036 215.73 59.0114L212.222 54.5803L225.336 44.1966ZM224.332 55.034L222.913 53.241L231.318 51.7526L232.779 53.5967L224.332 55.034ZM204.186 39.3268L205.646 40.7309C205.329 41.2339 205.125 41.7481 205.035 42.2736C204.941 42.7953 204.944 43.3113 205.042 43.8216C205.133 44.332 205.31 44.8195 205.573 45.2842C205.836 45.7489 206.168 46.1738 206.568 46.5588C207.298 47.2608 208.137 47.7124 209.084 47.9134C210.028 48.1107 211.02 48.0182 212.06 47.6359C213.096 47.2499 214.116 46.5349 215.12 45.491C216.124 44.4471 216.799 43.3999 217.144 42.3496C217.485 41.2955 217.539 40.3009 217.305 39.3658C217.068 38.4269 216.584 37.6065 215.854 36.9044C215.453 36.5194 215.016 36.2044 214.541 35.9595C214.067 35.7146 213.575 35.5548 213.065 35.48C212.547 35.4053 212.03 35.4251 211.512 35.5391C210.987 35.6533 210.481 35.8769 209.994 36.2099L208.534 34.8058C209.237 34.2953 209.967 33.9364 210.726 33.7291C211.484 33.5217 212.244 33.455 213.004 33.5287C213.76 33.6064 214.492 33.8155 215.199 34.156C215.903 34.4927 216.559 34.9536 217.167 35.5387C218.195 36.5276 218.868 37.6582 219.186 38.9306C219.503 40.2029 219.446 41.523 219.015 42.8908C218.583 44.2586 217.756 45.5783 216.533 46.8498C215.31 48.1214 214.023 48.9994 212.673 49.484C211.323 49.9686 210.007 50.077 208.723 49.8094C207.439 49.5417 206.283 48.9134 205.255 47.9245C204.647 47.3394 204.16 46.702 203.797 46.012C203.429 45.3183 203.193 44.5931 203.09 43.8365C202.983 43.0838 203.018 42.3245 203.196 41.5585C203.37 40.7965 203.7 40.0526 204.186 39.3268ZM192.379 26.7721C193.411 25.341 194.561 24.2906 195.83 23.6208C197.098 22.951 198.386 22.6583 199.695 22.7426C201.004 22.8268 202.236 23.2862 203.394 24.1205C204.551 24.9548 205.376 25.9795 205.87 27.1944C206.363 28.4094 206.492 29.7244 206.258 31.1393C206.023 32.5543 205.39 33.9773 204.358 35.4083C203.326 36.8394 202.176 37.8898 200.908 38.5595C199.639 39.2293 198.351 39.5221 197.042 39.4378C195.734 39.3535 194.501 38.8942 193.344 38.0599C192.186 37.2256 191.361 36.2009 190.868 34.9859C190.374 33.7709 190.245 32.456 190.48 31.041C190.714 29.6261 191.348 28.2031 192.379 26.7721ZM193.969 27.9185C193.122 29.0933 192.604 30.2266 192.414 31.3183C192.22 32.4068 192.307 33.3991 192.675 34.2951C193.038 35.188 193.63 35.9305 194.452 36.5228C195.273 37.1152 196.167 37.4441 197.133 37.5098C198.095 37.5723 199.064 37.3411 200.04 36.8163C201.011 36.2882 201.921 35.4368 202.768 34.2619C203.615 33.087 204.135 31.9554 204.329 30.8668C204.519 29.7752 204.432 28.7829 204.069 27.89C203.702 26.994 203.107 26.2498 202.286 25.6575C201.464 25.0652 200.572 24.7378 199.61 24.6753C198.644 24.6097 197.675 24.8408 196.704 25.3689C195.728 25.8937 194.817 26.7436 193.969 27.9185ZM189.635 15.3247C190.602 15.8473 191.34 16.4747 191.848 17.207C192.356 17.9393 192.633 18.7166 192.678 19.5391C192.722 20.3615 192.53 21.1704 192.101 21.9658C191.77 22.579 191.347 23.053 190.832 23.3876C190.309 23.7245 189.708 23.9723 189.029 24.1312C188.341 24.2923 187.585 24.4159 186.758 24.502L183.777 24.9344C183.213 24.9825 182.722 25.0949 182.305 25.2718C181.883 25.4462 181.536 25.7849 181.264 26.2879C181.063 26.6617 181.033 27.1126 181.174 27.6409C181.311 28.1666 181.646 28.573 182.177 28.8602C182.551 29.062 182.934 29.1447 183.324 29.1082C183.708 29.074 184.06 28.9547 184.381 28.7504C184.694 28.5483 184.934 28.294 185.099 27.9873C185.286 27.6424 185.381 27.2421 185.386 26.7867C185.383 26.3335 185.335 25.8435 185.242 25.3167C185.141 24.7922 185.036 24.2529 184.927 23.6989L182.626 11.8006L184.668 12.9027L186.612 22.6409C186.793 23.5432 186.958 24.3621 187.105 25.0976C187.253 25.8331 187.318 26.5149 187.3 27.143C187.283 27.771 187.119 28.3725 186.809 28.9474C186.452 29.6086 185.992 30.1094 185.431 30.4499C184.862 30.7926 184.237 30.9593 183.555 30.95C182.866 30.943 182.162 30.7454 181.443 30.3573C180.705 29.9589 180.148 29.4724 179.772 28.8978C179.392 28.3279 179.186 27.7306 179.152 27.1059C179.115 26.4859 179.245 25.9028 179.54 25.3566C179.92 24.6523 180.425 24.1358 181.054 23.8072C181.683 23.4786 182.42 23.2545 183.264 23.1349L187.376 22.5334C188.301 22.4017 189.005 22.1692 189.488 21.8361C189.971 21.5029 190.267 21.2356 190.376 21.0344C190.624 20.5745 190.736 20.081 190.711 19.5539C190.686 19.0269 190.522 18.5235 190.218 18.0437C189.914 17.564 189.469 17.1663 188.885 16.8506C188.329 16.5505 187.724 16.3756 187.07 16.3258C186.414 16.2808 185.751 16.3683 185.082 16.5885C184.407 16.806 183.775 17.1637 183.184 17.6616C182.589 18.157 182.077 18.7999 181.651 19.5905L180.012 18.7057C180.54 17.7283 181.083 16.9913 181.642 16.4949C182.201 15.9984 182.716 15.6516 183.188 15.4545C183.659 15.2573 184.028 15.1191 184.293 15.0397C184.39 14.9989 184.481 14.9555 184.568 14.9095C184.655 14.8635 184.746 14.8201 184.842 14.7793C185.604 14.5036 186.418 14.4293 187.283 14.5564C188.146 14.6883 188.93 14.9444 189.635 15.3247ZM176.03 25.3031L175.368 26.9736L163.704 22.3525L164.366 20.682L169.256 22.6195L174.756 8.73885L176.639 9.48496L171.139 23.3656L176.03 25.3031ZM165.965 5.57225L161.663 21.7368L151.908 19.1405L152.37 17.404L160.168 19.4794L161.622 14.0176L154.329 12.0766L154.791 10.3402L162.084 12.2812L163.546 6.78772L155.621 4.6787L156.083 2.94227L165.965 5.57225ZM136.734 11.7425L138.743 12.0054C138.786 12.5986 138.927 13.1333 139.167 13.6095C139.401 14.085 139.71 14.4987 140.092 14.8508C140.468 15.2076 140.9 15.4947 141.388 15.7123C141.875 15.9299 142.395 16.0748 142.945 16.1468C143.949 16.2783 144.892 16.1436 145.774 15.7428C146.65 15.3413 147.393 14.6779 148.003 13.7528C148.608 12.827 149.004 11.646 149.192 10.2098C149.38 8.77368 149.301 7.53051 148.955 6.4803C148.604 5.42939 148.057 4.59718 147.313 3.98368C146.564 3.36947 145.688 2.99665 144.683 2.86522C144.133 2.79315 143.594 2.79949 143.066 2.88424C142.539 2.96899 142.048 3.13263 141.594 3.37517C141.133 3.6224 140.728 3.9456 140.379 4.34476C140.025 4.74862 139.75 5.22892 139.557 5.78567L137.548 5.52281C137.81 4.69495 138.185 3.97242 138.672 3.35523C139.159 2.73804 139.73 2.23345 140.386 1.84147C141.04 1.45488 141.754 1.18851 142.525 1.04236C143.291 0.8955 144.093 0.876835 144.929 0.98636C146.344 1.17149 147.557 1.68167 148.568 2.5169C149.579 3.35212 150.317 4.44816 150.781 5.80501C151.246 7.16185 151.364 8.71492 151.135 10.4642C150.906 12.2135 150.393 13.6839 149.594 14.8754C148.796 16.0669 147.801 16.9361 146.609 17.483C145.417 18.0299 144.114 18.2108 142.699 18.0257C141.862 17.9162 141.093 17.6919 140.39 17.3528C139.682 17.0131 139.062 16.5695 138.53 16.022C137.997 15.48 137.574 14.8481 137.262 14.1263C136.95 13.4099 136.774 12.6153 136.734 11.7425ZM134.783 15.0351L134.776 16.832L122.231 16.7853L122.237 14.9884L127.497 15.008L127.553 0.0777128L129.578 0.0852536L129.523 15.0155L134.783 15.0351ZM105.856 10.4619C105.633 8.71187 105.756 7.1592 106.225 5.80389C106.695 4.44859 107.436 3.35499 108.45 2.5231C109.464 1.69121 110.678 1.18503 112.093 1.00456C113.509 0.824088 114.811 1.00928 116.001 1.56013C117.191 2.11098 118.183 2.98347 118.978 4.17759C119.773 5.37171 120.281 6.84379 120.505 8.59382C120.728 10.3439 120.605 11.8965 120.135 13.2518C119.666 14.6071 118.924 15.7007 117.911 16.5326C116.897 17.3645 115.682 17.8707 114.267 18.0512C112.852 18.2316 111.55 18.0464 110.36 17.4956C109.169 16.9447 108.177 16.0723 107.383 14.8781C106.588 13.684 106.079 12.2119 105.856 10.4619ZM107.801 10.2139C107.984 11.6507 108.379 12.8326 108.986 13.7598C109.587 14.6876 110.328 15.3534 111.208 15.7571C112.083 16.1615 113.023 16.2996 114.028 16.1715C115.032 16.0434 115.91 15.6734 116.661 15.0617C117.406 14.4507 117.956 13.6203 118.311 12.5705C118.66 11.5215 118.743 10.2785 118.56 8.8418C118.377 7.40504 117.985 6.22275 117.383 5.29492C116.776 4.36778 116.036 3.70201 115.161 3.29761C114.28 2.8939 113.338 2.7561 112.333 2.88422C111.328 3.01234 110.453 3.38193 109.708 3.99298C108.957 4.60471 108.407 5.43511 108.058 6.48417C107.703 7.53392 107.617 8.77717 107.801 10.2139ZM99.095 20.6549L96.8171 21.4649L86.809 10.287L86.6243 10.3526L85.9201 25.3397L83.6423 26.1497L78.038 10.3892L79.8234 9.75429L84.0813 21.7286L84.2352 21.6739L84.9024 7.94824L86.6263 7.33527L95.8093 17.5582L95.9632 17.5035L91.7053 5.52921L93.4907 4.89436L99.095 20.6549ZM63.1925 17.8625L64.98 16.9097L72.0028 30.0853L75.1453 28.4103C75.943 27.9851 76.5191 27.5207 76.8738 27.0169C77.2311 26.518 77.4024 25.9886 77.3878 25.4287C77.3732 24.8688 77.2084 24.2934 76.8934 23.7023C76.5784 23.1113 76.1988 22.6596 75.7546 22.3472C75.3082 22.0422 74.7832 21.9024 74.1798 21.9279C73.5715 21.9559 72.8734 22.1799 72.0853 22.6L68.1067 24.7206L67.2462 23.1061L71.2824 20.9547C72.4261 20.3451 73.4666 20.0342 74.4041 20.022C75.3442 20.0145 76.1713 20.2524 76.8855 20.7356C77.5996 21.2188 78.1885 21.8952 78.6521 22.7649C79.1156 23.6347 79.3515 24.5055 79.3596 25.3773C79.3677 26.2492 79.1055 27.0769 78.573 27.8606C78.043 28.649 77.2014 29.3506 76.0482 29.9653L71.0605 32.6238L63.1925 17.8625ZM73.6751 20.79L71.657 21.8657L71.6975 13.3291L73.7733 12.2227L73.6751 20.79ZM54.6065 37.7879L56.2504 36.6044C56.688 37.0072 57.1572 37.3001 57.6579 37.4831C58.1542 37.6692 58.6622 37.7597 59.1819 37.7546C59.7003 37.7571 60.2118 37.6707 60.7162 37.4954C61.2207 37.32 61.6983 37.0701 62.149 36.7456C62.9709 36.1539 63.566 35.4101 63.9342 34.5143C64.298 33.6217 64.3854 32.6295 64.1965 31.5377C64.0032 30.4491 63.4834 29.317 62.6371 28.1416C61.7908 26.9661 60.8822 26.1141 59.9111 25.5854C58.9356 25.0598 57.9669 24.828 57.005 24.8898C56.0387 24.9548 55.1446 25.2832 54.3226 25.875C53.8719 26.1995 53.4834 26.5731 53.1571 26.9959C52.8308 27.4187 52.585 27.8741 52.4197 28.3621C52.2532 28.8577 52.1795 29.3704 52.1985 29.9001C52.2164 30.4375 52.3453 30.9753 52.5853 31.5137L50.9415 32.6972C50.5657 31.9144 50.3441 31.1313 50.2766 30.3479C50.2091 29.5645 50.28 28.8056 50.4893 28.0712C50.7018 27.3412 51.0391 26.6589 51.5014 26.0242C51.9592 25.3926 52.5306 24.8303 53.2155 24.3372C54.3733 23.5036 55.6065 23.0452 56.9152 22.9618C58.2239 22.8784 59.5122 23.172 60.78 23.8427C62.0478 24.5133 63.1971 25.5645 64.2279 26.9963C65.2587 28.428 65.891 29.8514 66.1248 31.2665C66.3586 32.6816 66.2284 33.9965 65.7342 35.2111C65.2399 36.4258 64.4139 37.4499 63.2562 38.2834C62.5712 38.7765 61.8567 39.14 61.1125 39.3738C60.364 39.6108 59.6082 39.7121 58.8454 39.6776C58.0857 39.6475 57.3451 39.4762 56.6236 39.1637C55.9053 38.8556 55.2329 38.397 54.6065 37.7879ZM40.1517 47.1626C38.9275 45.8923 38.0989 44.5734 37.6659 43.206C37.2329 41.8386 37.1745 40.5186 37.4907 39.246C37.8069 37.9733 38.4787 36.842 39.5059 35.8521C40.5331 34.8621 41.6885 34.2327 42.972 33.9637C44.2555 33.6948 45.5724 33.802 46.9228 34.2852C48.2733 34.7684 49.5606 35.6452 50.7848 36.9155C52.009 38.1858 52.8376 39.5047 53.2706 40.8721C53.7036 42.2394 53.762 43.5595 53.4458 44.8321C53.1296 46.1048 52.4578 47.2361 51.4306 48.226C50.4034 49.216 49.248 49.8454 47.9645 50.1143C46.681 50.3833 45.3641 50.2761 44.0137 49.7929C42.6632 49.3097 41.3759 48.4329 40.1517 47.1626ZM41.5632 45.8023C42.5682 46.8453 43.591 47.5573 44.6314 47.9386C45.6678 48.3236 46.6597 48.4151 47.6069 48.2131C48.5502 48.0149 49.3864 47.5644 50.1157 46.8616C50.845 46.1588 51.328 45.3379 51.5649 44.3988C51.7978 43.4635 51.7431 42.4689 51.4006 41.4151C51.0541 40.3651 50.3784 39.3187 49.3733 38.2757C48.3683 37.2328 47.3475 36.5189 46.311 36.1339C45.2706 35.7526 44.2788 35.6611 43.3355 35.8593C42.3883 36.0613 41.5501 36.5137 40.8208 37.2165C40.0915 37.9193 39.6104 38.7383 39.3775 39.6737C39.1406 40.6127 39.1954 41.6073 39.5418 42.6573C39.8843 43.7111 40.5581 44.7594 41.5632 45.8023ZM28.3981 47.8205C29.085 46.9615 29.8341 46.3474 30.6453 45.9782C31.4565 45.609 32.2707 45.4758 33.088 45.5786C33.9052 45.6813 34.6668 46.015 35.3727 46.5795C35.917 47.0148 36.3078 47.5156 36.5452 48.0819C36.7834 48.6559 36.9199 49.2915 36.9549 49.9888C36.9908 50.6938 36.9773 51.4604 36.9145 52.2887L36.8078 55.2991C36.7543 55.8629 36.7774 56.3659 36.8769 56.808C36.9731 57.2545 37.2444 57.6562 37.6909 58.0133C38.0226 58.2786 38.461 58.3886 39.0061 58.3435C39.5478 58.3026 40.0074 58.0461 40.3849 57.5741C40.6501 57.2424 40.7997 56.881 40.8337 56.4898C40.8685 56.1063 40.814 55.7385 40.6702 55.3865C40.5273 55.0421 40.3198 54.7611 40.0476 54.5434C39.7415 54.2985 39.3647 54.1332 38.9174 54.0474C38.4709 53.9692 37.9803 53.9289 37.4454 53.9264C36.9113 53.9316 36.362 53.9385 35.7973 53.9471L23.6795 54.0868L25.1282 52.2753L35.0572 52.1002C35.9773 52.0831 36.8124 52.0676 37.5624 52.0539C38.3125 52.0402 38.9949 52.0979 39.6097 52.227C40.2246 52.3562 40.7871 52.6248 41.2974 53.0329C41.8843 53.5022 42.2951 54.0434 42.5299 54.6565C42.7656 55.2773 42.818 55.9223 42.6871 56.5915C42.5571 57.2685 42.237 57.9259 41.7269 58.5637C41.2032 59.2186 40.625 59.68 39.9924 59.948C39.364 60.2194 38.7394 60.316 38.1186 60.2378C37.5021 60.1631 36.9514 59.9319 36.4666 59.5442C35.8415 59.0443 35.4235 58.4555 35.2125 57.7777C35.0015 57.1 34.9125 56.3351 34.9455 55.483L35.0877 51.3298C35.1233 50.396 35.0203 49.6618 34.7787 49.1269C34.5371 48.5921 34.327 48.2532 34.1484 48.1104C33.7401 47.7839 33.2745 47.5858 32.7515 47.5162C32.2285 47.4465 31.7039 47.5185 31.1775 47.732C30.6512 47.9455 30.1805 48.3117 29.7656 48.8305C29.3711 49.3238 29.091 49.8876 28.9253 50.522C28.7638 51.1598 28.7316 51.8278 28.8287 52.526C28.9223 53.2284 29.1614 53.9146 29.5459 54.5846C29.927 55.2589 30.4683 55.8766 31.17 56.4378L30.0069 57.8921C29.1394 57.1983 28.5113 56.5322 28.1226 55.8936C27.7338 55.255 27.4846 54.6861 27.3748 54.187C27.265 53.6878 27.1948 53.3005 27.1642 53.025C27.1412 52.9229 27.1148 52.8252 27.085 52.7316C27.0552 52.6381 27.0289 52.5403 27.0059 52.4382C26.8706 51.6398 26.9427 50.8259 27.2224 49.9968C27.5062 49.171 27.8982 48.4456 28.3981 47.8205ZM35.7675 63.0106L37.2888 63.9669L30.6118 74.588L29.0906 73.6317L31.89 69.1786L19.2498 61.2323L20.3279 59.5175L32.9681 67.4637L35.7675 63.0106ZM14.5166 69.3511L29.6681 76.4386L25.3907 85.5828L23.7631 84.8214L27.1823 77.512L22.0627 75.1172L18.865 81.9531L17.2374 81.1918L20.4351 74.3558L15.286 71.9472L11.8114 79.375L10.1838 78.6136L14.5166 69.3511ZM15.3513 99.2035L15.9743 97.2762C16.5655 97.3414 17.117 97.2993 17.6288 97.15C18.1389 97.0059 18.6017 96.7778 19.0173 96.4658C19.4364 96.1606 19.7972 95.7879 20.0997 95.3478C20.4022 94.9077 20.6389 94.4234 20.8097 93.8949C21.1212 92.9312 21.1598 91.9795 20.9257 91.0397C20.6899 90.1051 20.1724 89.254 19.3733 88.4864C18.5725 87.724 17.483 87.1201 16.1049 86.6746C14.7267 86.2291 13.4898 86.0811 12.3943 86.2306C11.2971 86.3853 10.3794 86.7725 9.64116 87.3922C8.90125 88.0172 8.37555 88.8115 8.06406 89.7752C7.89324 90.3036 7.80166 90.8348 7.78931 91.3688C7.77696 91.9027 7.8488 92.4152 8.00481 92.9062C8.16433 93.4041 8.40871 93.8608 8.73795 94.2762C9.07069 94.6985 9.49324 95.0554 10.0056 95.3469L9.38262 97.2743C8.61607 96.8663 7.97353 96.3668 7.45499 95.7757C6.93646 95.1846 6.54392 94.5313 6.27737 93.8157C6.01601 93.1017 5.88347 92.3522 5.87975 91.567C5.87435 90.787 6.00145 89.9955 6.26102 89.1924C6.69979 87.8349 7.42158 86.7349 8.42641 85.8923C9.43123 85.0497 10.643 84.5229 12.0617 84.3119C13.4804 84.101 15.0291 84.2668 16.7077 84.8094C18.3864 85.352 19.7392 86.124 20.766 87.1254C21.7928 88.1268 22.467 89.2632 22.7885 90.5345C23.1101 91.8058 23.0515 93.1202 22.6127 94.4777C22.3531 95.2808 21.9929 95.9969 21.532 96.6262C21.0694 97.2607 20.5206 97.79 19.8857 98.2142C19.2559 98.6401 18.5578 98.941 17.7914 99.1167C17.0302 99.2941 16.2168 99.3231 15.3513 99.2035ZM18.2401 101.706L20.0065 102.036L17.7065 114.369L15.9401 114.039L16.9044 108.869L2.22704 106.131L2.59839 104.14L17.2757 106.877L18.2401 101.706ZM8.58099 129.342C6.81913 129.251 5.31293 128.855 4.06241 128.152C2.81188 127.45 1.86719 126.526 1.22835 125.381C0.589503 124.236 0.306811 122.951 0.380274 121.526C0.453736 120.101 0.867089 118.852 1.62033 117.779C2.37358 116.705 3.40827 115.884 4.72441 115.313C6.04055 114.743 7.57955 114.504 9.34141 114.595C11.1033 114.686 12.6095 115.082 13.86 115.785C15.1105 116.487 16.0552 117.411 16.6941 118.556C17.3329 119.701 17.6156 120.986 17.5421 122.411C17.4687 123.836 17.0553 125.085 16.3021 126.158C15.5488 127.232 14.5141 128.053 13.198 128.623C11.8819 129.193 10.3429 129.433 8.58099 129.342ZM8.68194 127.385C10.1284 127.459 11.3617 127.28 12.3818 126.847C13.4016 126.42 14.1882 125.809 14.7417 125.014C15.2949 124.225 15.5976 123.325 15.6498 122.313C15.7019 121.302 15.4936 120.372 15.0248 119.525C14.5557 118.683 13.836 117.994 12.8659 117.459C11.8954 116.929 10.6869 116.627 9.24047 116.552C7.794 116.478 6.56087 116.654 5.54107 117.081C4.52099 117.514 3.73434 118.125 3.18112 118.914C2.62762 119.709 2.3248 120.612 2.27265 121.624C2.22049 122.635 2.42897 123.562 2.89807 124.404C3.36689 125.251 4.08652 125.94 5.05697 126.47C6.02715 127.005 7.23547 127.31 8.68194 127.385ZM17.3898 137.843L17.7722 140.231L4.96123 148.04L4.99223 148.233L19.6015 151.65L19.9839 154.037L3.46724 156.683L3.16752 154.812L15.7163 152.802L15.6905 152.641L2.31487 149.489L2.02549 147.683L13.7475 140.511L13.7217 140.35L1.17284 142.36L0.873123 140.489L17.3898 137.843ZM8.17399 172.655L7.55492 170.727L21.7709 166.163L20.6825 162.773C20.4063 161.912 20.0519 161.262 19.6194 160.824C19.1921 160.383 18.7017 160.12 18.1481 160.035C17.5946 159.95 16.999 160.009 16.3613 160.214C15.7236 160.419 15.2115 160.712 14.825 161.093C14.4453 161.478 14.2142 161.97 14.1318 162.568C14.051 163.172 14.1471 163.898 14.42 164.749L15.7979 169.041L14.0559 169.601L12.658 165.246C12.2619 164.012 12.1414 162.932 12.2963 162.008C12.4565 161.081 12.8379 160.31 13.4406 159.693C14.0433 159.077 14.8138 158.618 15.7522 158.316C16.6906 158.015 17.5895 157.938 18.4488 158.086C19.3082 158.233 20.076 158.638 20.7522 159.302C21.4336 159.964 21.974 160.917 22.3734 162.161L24.1009 167.543L8.17399 172.655ZM12.9222 162.862L13.6212 165.039L5.22839 163.479L4.50946 161.239L12.9222 162.862ZM26.2298 184.67L25.3612 182.84C25.8361 182.482 26.2086 182.073 26.4786 181.614C26.751 181.159 26.9314 180.676 27.0198 180.163C27.1155 179.654 27.1224 179.135 27.0407 178.608C26.9589 178.08 26.799 177.565 26.5608 177.063C26.1265 176.148 25.5019 175.429 24.6869 174.906C23.8743 174.388 22.9139 174.123 21.8059 174.113C20.7003 174.107 19.4932 174.415 18.1848 175.036C16.8763 175.657 15.8747 176.398 15.18 177.258C14.4877 178.123 14.0854 179.034 13.9733 179.991C13.8635 180.954 14.0257 181.892 14.46 182.807C14.6982 183.309 14.9959 183.758 15.3531 184.155C15.7103 184.552 16.1141 184.876 16.5644 185.126C17.022 185.379 17.5131 185.544 18.0376 185.621C18.5694 185.7 19.1217 185.67 19.6945 185.53L20.5631 187.36C19.7254 187.589 18.9152 187.666 18.1324 187.592C17.3497 187.517 16.6159 187.311 15.9311 186.973C15.2512 186.633 14.6407 186.178 14.0994 185.609C13.5605 185.045 13.1101 184.382 12.7482 183.62C12.1364 182.331 11.9072 181.035 12.0605 179.733C12.2138 178.431 12.7343 177.216 13.622 176.09C14.5097 174.963 15.7504 174.022 17.3442 173.265C18.9379 172.509 20.4519 172.143 21.8859 172.167C23.32 172.191 24.5901 172.556 25.696 173.261C26.802 173.965 27.6609 174.962 28.2726 176.251C28.6345 177.013 28.8636 177.781 28.9598 178.555C29.0583 179.334 29.022 180.096 28.8509 180.84C28.6847 181.582 28.3831 182.28 27.9459 182.933C27.5136 183.585 26.9416 184.164 26.2298 184.67ZM32.8603 200.568C31.3912 201.544 29.9452 202.123 28.5224 202.304C27.0996 202.485 25.7905 202.306 24.5951 201.767C23.3997 201.228 22.407 200.364 21.6172 199.176C20.8273 197.988 20.415 196.739 20.3804 195.428C20.3458 194.117 20.6872 192.841 21.4046 191.599C22.1219 190.357 23.2152 189.247 24.6843 188.27C26.1534 187.294 27.5994 186.715 29.0222 186.534C30.4451 186.353 31.7542 186.532 32.9496 187.071C34.145 187.61 35.1376 188.474 35.9275 189.662C36.7173 190.85 37.1296 192.099 37.1642 193.41C37.1988 194.721 36.8574 195.997 36.1401 197.239C35.4227 198.481 34.3295 199.591 32.8603 200.568ZM31.775 198.935C32.9811 198.133 33.8649 197.255 34.4264 196.299C34.9909 195.349 35.2586 194.389 35.2296 193.421C35.2036 192.458 34.9103 191.554 34.3495 190.711C33.7888 189.867 33.0677 189.245 32.1862 188.844C31.3078 188.447 30.3195 188.323 29.2214 188.471C28.1264 188.624 26.9757 189.101 25.7696 189.903C24.5635 190.705 23.6782 191.581 23.1137 192.532C22.5522 193.487 22.2845 194.446 22.3105 195.41C22.3395 196.378 22.6344 197.284 23.1951 198.127C23.7558 198.971 24.4754 199.591 25.3539 199.987C26.2353 200.389 27.2236 200.513 28.3187 200.36C29.4168 200.212 30.5689 199.737 31.775 198.935ZM31.4041 212.248C30.6818 211.419 30.2116 210.572 29.9935 209.708C29.7754 208.844 29.79 208.019 30.0372 207.233C30.2845 206.448 30.749 205.758 31.4308 205.164C31.9564 204.707 32.5191 204.412 33.1187 204.28C33.726 204.148 34.3758 204.127 35.0681 204.218C35.7681 204.308 36.52 204.459 37.3237 204.669L40.2664 205.312C40.8115 205.466 41.3105 205.533 41.7634 205.514C42.2198 205.499 42.6636 205.304 43.0948 204.929C43.4152 204.65 43.6019 204.238 43.6549 203.694C43.7116 203.154 43.5415 202.656 43.1446 202.2C42.8657 201.879 42.5369 201.668 42.1581 201.564C41.787 201.461 41.4154 201.449 41.0433 201.528C40.6789 201.607 40.3653 201.761 40.1025 201.989C39.8068 202.247 39.5767 202.588 39.4123 203.013C39.2555 203.438 39.1281 203.914 39.03 204.439C38.9395 204.966 38.848 205.507 38.7555 206.065L36.7252 218.012L35.2021 216.262L36.806 206.462C36.9537 205.554 37.0879 204.73 37.2085 203.989C37.3292 203.249 37.5081 202.588 37.7451 202.006C37.9822 201.424 38.3471 200.919 38.8399 200.49C39.4066 199.996 40.0126 199.689 40.6578 199.567C41.3107 199.447 41.9547 199.51 42.5897 199.759C43.2325 200.008 43.822 200.44 44.3583 201.056C44.909 201.689 45.2595 202.34 45.41 203.011C45.5646 203.677 45.5479 204.309 45.36 204.906C45.1762 205.499 44.8502 206 44.382 206.407C43.7783 206.933 43.1242 207.239 42.4197 207.325C41.7152 207.412 40.9467 207.362 40.1143 207.177L36.0534 206.295C35.1411 206.092 34.4002 206.062 33.8308 206.205C33.2614 206.347 32.8904 206.493 32.7179 206.643C32.3237 206.986 32.0455 207.409 31.8835 207.911C31.7214 208.413 31.6983 208.942 31.8142 209.498C31.9302 210.054 32.2062 210.583 32.6424 211.084C33.0572 211.56 33.5618 211.936 34.1564 212.213C34.755 212.486 35.4064 212.637 36.1107 212.667C36.8185 212.7 37.5364 212.588 38.2644 212.329C38.996 212.075 39.7006 211.653 40.3782 211.063L41.601 212.467C40.7633 213.197 39.9955 213.695 39.2977 213.964C38.5999 214.232 37.9956 214.375 37.4848 214.394C36.9741 214.413 36.5805 214.413 36.3039 214.393C36.1994 214.398 36.0985 214.406 36.0011 214.419C35.9038 214.431 35.8028 214.44 35.6983 214.444C34.8885 214.435 34.1007 214.218 33.3349 213.795C32.5733 213.368 31.9297 212.852 31.4041 212.248Z" fill="black"/>
</svg>
