<svg width="240" height="240" viewBox="0 0 240 240" fill="none" xmlns="http://www.w3.org/2000/svg">
<path d="M62.3056 43.1291C67.7316 39.477 73.9894 39.6576 80.4086 42.8041C84.5042 44.197 87.3374 41.1716 90.2006 36.8665C90.4274 36.5249 90.7084 36.1626 91.0355 35.7847C92.1011 33.8421 93.3648 31.9617 94.7986 30.1C100.007 23.3446 106.214 22.8544 112.671 26.5658C116.687 28.2472 121.757 27.4826 124.217 24.7149C127.274 20.1571 131.227 17.7571 134.837 17.1067C137.348 16.6538 139.8 17.6558 142.161 19.8652C143.068 20.2845 143.733 20.9439 144.043 21.9009C145.089 23.1867 146.114 24.707 147.116 26.4378C149.529 28.1985 152.725 28.1283 155.529 26.1073C158.689 23.0722 161.905 21.3145 164.846 20.9952C170.174 20.415 173.4 23.8979 175.193 30.0251C176.245 32.595 180.873 33.338 184.702 32.7102C190.532 31.0684 195.935 31.8643 200.678 35.8743C205.842 40.235 205.833 49.6495 201.756 60.8374C214.921 67.6748 225.232 76.0039 230.688 84.3863C249.959 113.995 214.443 153.146 162.117 188.365C109.791 223.585 52.1649 237.483 32.8933 207.875C28.3515 200.897 25.6179 191.008 24.7776 179.506C13.8482 176.65 6.06908 171.732 4.80895 166.443C3.79674 162.21 3.29811 157.146 6.00764 152.156C8.68268 145.243 10.7559 137.798 9.64427 131.864C7.13079 126.703 6.21778 121.418 7.2763 116.327C8.85263 108.754 14.1919 105.696 21.9715 105.42C22.0271 105.415 22.0813 105.412 22.1342 105.413C22.142 105.413 22.1499 105.413 22.1577 105.413C22.3148 105.408 22.4729 105.405 22.6319 105.403C26.1564 105.175 27.9292 101.491 27.013 96.5937C24.6747 88.8249 25.2085 81.5797 29.2056 75.668C32.6561 70.5629 38.2454 68.239 45.1215 68.3608C49.9677 66.5298 54.2286 60.7413 54.8995 56.9765C55.3329 50.9597 57.6668 46.2514 62.3056 43.1291ZM93.3257 85.734C89.092 88.5836 95.9453 106.693 108.642 126.199C121.339 145.706 135.057 159.204 139.291 156.354C143.524 153.504 136.666 135.389 123.97 115.882C111.278 96.3824 97.5595 82.8847 93.3257 85.734ZM152.858 94.2795C138.822 79.9545 124.802 71.0522 121.518 74.3887C118.234 77.7253 126.95 92.0464 140.977 106.369C155.018 120.701 169.037 129.603 172.321 126.267C175.594 122.928 166.889 108.609 152.858 94.2795ZM73.6092 104.918C69.3865 106.474 69.2264 121.626 76.5872 142.022C83.9543 162.413 93.3357 177.685 97.5541 176.122C101.772 174.558 99.2149 156.768 91.8607 136.369C84.5043 115.98 77.8339 103.351 73.6092 104.918ZM178.372 79.1996C164.087 70.579 150.6 66.8745 148.244 70.9472C145.899 75.0221 155.568 85.3136 169.851 93.9451C184.145 102.579 197.624 106.27 199.98 102.197C202.325 98.1226 192.656 87.831 178.372 79.1996ZM54.7889 131.381C50.2032 132.141 46.5685 143.729 49.2853 160.116C52.0022 176.505 57.9099 189.159 62.4956 188.4C67.0877 187.637 68.5922 173.747 65.8859 157.361C63.1775 140.986 59.3746 130.622 54.7889 131.381ZM22.4091 155.893C15.3597 154.973 9.36661 157.799 9.03466 162.191C8.7028 166.584 14.1559 170.896 21.2053 171.816C28.2615 172.732 34.2474 169.911 34.5793 165.518C34.9112 161.125 29.4585 156.813 22.4091 155.893ZM191.243 38.0384C186.094 37.3644 181.569 41.6172 181.125 47.5485C180.682 53.4674 184.495 58.8306 189.643 59.5048C194.792 60.1788 199.324 55.9211 199.762 49.9946C200.199 44.0683 196.391 38.7123 191.243 38.0384ZM164.141 27.5631C159.628 27.9759 156.686 33.7043 157.561 40.3563C158.443 47.0035 162.816 52.0638 167.329 51.6511C171.843 51.2384 174.786 45.5104 173.911 38.8584C173.031 32.1989 168.655 27.1504 164.141 27.5631ZM27.5089 115.839C22.3185 111.796 16.1121 111.349 13.6511 114.847C11.1902 118.346 13.4078 124.459 18.6025 128.509C23.7974 132.559 30.0001 133 32.4611 129.501C34.922 126.002 32.7038 119.889 27.5089 115.839ZM144.161 30.377C139.291 25.2386 132.773 23.6872 129.607 26.9192C126.441 30.1513 127.813 36.9451 132.682 42.0838C137.552 47.2224 144.071 48.7739 147.237 45.5418C150.403 42.3096 149.03 35.5156 144.161 30.377ZM113.721 35.4108C109.792 30.0578 103.752 27.8863 100.23 30.5603C96.7085 33.2344 97.0386 39.7418 100.967 45.0948C104.896 50.4476 110.937 52.6192 114.458 49.9452C117.98 47.2711 117.65 40.7637 113.721 35.4108ZM45.1044 76.3347C38.9241 74.5226 33.1114 76.5039 32.1382 80.7638C31.1652 85.0237 35.3831 89.9496 41.5634 91.7617C47.7436 93.5737 53.5497 91.597 54.5296 87.3326C55.5026 83.0727 51.2847 78.1468 45.1044 76.3347ZM74.9137 48.6619C68.729 46.843 62.9207 48.8312 61.9475 53.091C60.9744 57.351 65.1923 62.2769 71.3727 64.089C77.5529 65.9011 83.359 63.9244 84.3388 59.6599C85.3119 55.4 81.094 50.4741 74.9137 48.6619Z" fill="#F4D390"/>
</svg>
