<svg width="64" height="64" viewBox="0 0 64 64" fill="none" xmlns="http://www.w3.org/2000/svg">
<rect width="64" height="64" rx="32" fill="#6E0905"/>
<path d="M15.463 13.0564C19.4953 12.8441 29.231 13.08 35.961 16.4683C44.3734 20.7038 47.8095 25.8805 49.7053 32.7043C51.601 39.5282 50.8901 47.8815 50.7717 49.7639C50.6532 51.6463 48.8759 52.4699 47.5725 52.9406C46.2692 53.4112 44.2549 50.9405 41.6483 50.7052C39.0416 50.4699 34.3021 51.2934 30.3921 49.8816C26.4821 48.4698 22.5721 45.7637 18.0696 41.0577C13.5672 36.3516 13.3302 33.0573 13.0932 27.1747C12.8563 21.2921 11.5529 19.0567 11.1975 17.9978C10.842 16.9389 10.842 16.233 12.2638 14.9388C13.6856 13.6447 14.2798 13.1187 15.463 13.0564ZM21.7496 15.1836C21.4399 15.1365 21.1319 15.267 20.951 15.5168L20.9165 15.5682C20.4662 16.3 19.9664 16.7251 19.4778 16.9644C18.9865 17.2051 18.4567 17.2822 17.9132 17.2413C16.7987 17.1575 15.6957 16.5798 15.029 16.0572C14.6695 15.7754 14.1479 15.8363 13.8641 16.1933C13.5803 16.5503 13.6416 17.0682 14.0011 17.35C14.8353 18.004 16.2444 18.7675 17.7878 18.8836C18.5732 18.9427 19.409 18.8347 20.2116 18.4415C20.6381 18.2326 21.0408 17.9492 21.4138 17.5865C22.0647 18.6269 23.099 19.424 24.3258 19.7771C25.78 20.1955 27.4448 19.9773 29.0196 18.9197C29.3645 19.7043 29.9216 20.5137 30.7596 21.077C31.9142 21.853 33.4406 22.0596 35.3239 21.3592C35.4617 22.2738 35.801 23.2791 36.4858 24.0744C37.0179 24.6921 37.7488 25.169 38.7044 25.3593C39.2666 25.4713 39.8866 25.4796 40.5671 25.377C40.3942 26.2876 40.3736 27.3276 40.7062 28.2963C40.9807 29.0958 41.4951 29.8382 42.3349 30.3851C42.8692 30.733 43.5133 30.987 44.2739 31.1379C43.8079 32.0277 43.4501 33.1123 43.5128 34.2042C43.5617 35.0544 43.8675 35.9066 44.5616 36.631C45.0194 37.1088 45.6223 37.5061 46.3787 37.816C45.8251 38.5771 45.3314 39.5292 45.1926 40.5406C45.0848 41.3269 45.1909 42.1663 45.6696 42.9507C45.9507 43.4112 46.3437 43.8258 46.8521 44.1902C46.3434 44.6342 45.8563 45.2052 45.5305 45.8927C44.9158 47.1901 44.9304 48.7968 46.1956 50.4901C46.4686 50.8552 46.9881 50.9316 47.3559 50.6606C47.7237 50.3896 47.8005 49.8736 47.5276 49.5084C46.6129 48.284 46.6865 47.3219 47.0315 46.5938C47.4116 45.7915 48.1816 45.1635 48.7891 44.8451C49.0703 44.6977 49.2419 44.4034 49.2309 44.0879C49.2198 43.7725 49.028 43.491 48.7373 43.3634C47.8285 42.9646 47.3414 42.5118 47.0882 42.097C46.8393 41.6892 46.7703 41.2432 46.8362 40.7628C46.9751 39.7503 47.7058 38.678 48.3959 37.9927C48.6076 37.7825 48.6889 37.4753 48.6084 37.1889C48.5278 36.9026 48.2979 36.6814 48.0071 36.6105C46.8548 36.3299 46.1664 35.9163 45.7633 35.4956C45.3706 35.0857 45.198 34.6171 45.1688 34.1104C45.107 33.0357 45.6992 31.7997 46.3368 30.9676C46.5243 30.7229 46.5589 30.3949 46.4266 30.1169C46.2942 29.839 46.0169 29.6573 45.7076 29.6458C44.5347 29.6027 43.7569 29.3413 43.2446 29.0077C42.7419 28.6804 42.4431 28.2505 42.2763 27.7648C41.9261 26.7447 42.1576 25.454 42.5337 24.547C42.6575 24.2484 42.5941 23.9052 42.3714 23.6697C42.1487 23.4342 41.8077 23.3497 41.4997 23.4537C40.4113 23.8212 39.6108 23.8599 39.0307 23.7444C38.4633 23.6313 38.0538 23.3607 37.7466 23.004C37.098 22.2509 36.8727 21.0631 36.9082 20.1473C36.9196 19.8527 36.7715 19.5745 36.5201 19.4179C36.2686 19.2613 35.952 19.2501 35.69 19.3885C33.6523 20.4647 32.4243 20.2068 31.6895 19.713C30.8778 19.1674 30.4122 18.1675 30.2588 17.3723C30.2019 17.0771 29.9875 16.8361 29.6995 16.7436C29.4115 16.6511 29.0955 16.7217 28.8752 16.9279C27.4053 18.304 25.9259 18.5224 24.7877 18.195C23.6148 17.8575 22.7114 16.9203 22.4288 15.798C22.3478 15.4761 22.08 15.2338 21.7496 15.1836Z" fill="#F4D390"/>
</svg>
