<svg width="64" height="64" viewBox="0 0 64 64" fill="none" xmlns="http://www.w3.org/2000/svg">
<rect width="64" height="64" rx="32" fill="#6E0905"/>
<path d="M16.9051 15.0494C20.4334 14.8636 28.9522 15.07 34.8408 18.0348C42.2017 21.7408 45.2083 26.2705 46.8671 32.2413C48.5259 38.2121 47.9039 45.5213 47.8002 47.1684C47.6965 48.8155 46.1414 49.5362 45.001 49.948C43.8606 50.3598 42.098 48.1979 39.8172 47.992C37.5364 47.7861 33.3894 48.5067 29.9681 47.2714C26.5469 46.036 23.1256 43.6683 19.1859 39.5505C15.2463 35.4326 15.0389 32.5501 14.8316 27.4029C14.6242 22.2556 13.4838 20.2996 13.1728 19.3731C12.8618 18.4466 12.8618 17.8289 14.1059 16.6965C15.3499 15.5641 15.8698 15.1039 16.9051 15.0494ZM22.4059 16.9106C22.1349 16.8695 21.8654 16.9836 21.7071 17.2022L21.677 17.2472C21.2829 17.8875 20.8456 18.2594 20.4181 18.4689C19.9882 18.6795 19.5247 18.7469 19.0491 18.7112C18.0739 18.6378 17.1087 18.1323 16.5254 17.6751C16.2108 17.4285 15.7544 17.4818 15.5061 17.7941C15.2577 18.1065 15.3114 18.5597 15.626 18.8063C16.3559 19.3785 17.5888 20.0466 18.9393 20.1482C19.6265 20.1999 20.3579 20.1053 21.0602 19.7613C21.4334 19.5785 21.7857 19.3305 22.1121 19.0132C22.6816 19.9235 23.5867 20.621 24.66 20.9299C25.9325 21.2961 27.3892 21.1052 28.7672 20.1798C29.0689 20.8663 29.5564 21.5745 30.2897 22.0674C31.2999 22.7464 32.6355 22.9271 34.2834 22.3143C34.404 23.1146 34.7009 23.9942 35.3001 24.6901C35.7656 25.2306 36.4052 25.6478 37.2414 25.8144C37.7333 25.9124 38.2757 25.9197 38.8712 25.8299C38.7199 26.6267 38.7019 27.5366 38.9929 28.3843C39.2331 29.0839 39.6832 29.7334 40.418 30.2119C40.8856 30.5164 41.4491 30.7387 42.1147 30.8706C41.7069 31.6493 41.3938 32.5983 41.4487 33.5537C41.4915 34.2976 41.759 35.0432 42.3664 35.6771C42.767 36.0952 43.2945 36.4428 43.9563 36.714C43.4719 37.38 43.04 38.2131 42.9186 39.0981C42.8242 39.7861 42.917 40.5205 43.3359 41.2068C43.5819 41.6098 43.9258 41.9726 44.3706 42.2914C43.9255 42.6799 43.4992 43.1795 43.2142 43.7811C42.6764 44.9163 42.6891 46.3222 43.7962 47.8038C44.035 48.1233 44.4896 48.1901 44.8114 47.953C45.1332 47.7159 45.2004 47.2644 44.9617 46.9449C44.1612 45.8735 44.2257 45.0317 44.5276 44.3945C44.8602 43.6925 45.5339 43.143 46.0655 42.8644C46.3115 42.7355 46.4617 42.478 46.452 42.2019C46.4423 41.9259 46.2745 41.6796 46.0201 41.568C45.2249 41.2191 44.7987 40.8228 44.5772 40.4599C44.3594 40.103 44.299 39.7128 44.3567 39.2925C44.4782 38.4065 45.1176 37.4682 45.7214 36.8686C45.9067 36.6847 45.9778 36.4159 45.9073 36.1653C45.8368 35.9147 45.6357 35.7212 45.3813 35.6592C44.3729 35.4136 43.7706 35.0517 43.4179 34.6837C43.0743 34.325 42.9232 33.915 42.8977 33.4716C42.8437 32.5313 43.3618 31.4497 43.9197 30.7216C44.0837 30.5076 44.114 30.2205 43.9982 29.9773C43.8824 29.7341 43.6398 29.5751 43.3691 29.5651C42.3429 29.5274 41.6623 29.2987 41.214 29.0068C40.7742 28.7203 40.5127 28.3442 40.3668 27.9192C40.0603 27.0266 40.2629 25.8973 40.592 25.1037C40.7003 24.8423 40.6448 24.5421 40.45 24.336C40.2551 24.1299 39.9568 24.056 39.6872 24.147C38.7349 24.4685 38.0345 24.5024 37.5269 24.4013C37.0304 24.3024 36.6721 24.0656 36.4033 23.7535C35.8358 23.0946 35.6386 22.0552 35.6696 21.2539C35.6796 20.9961 35.5501 20.7527 35.3301 20.6157C35.11 20.4786 34.833 20.4688 34.6037 20.5899C32.8208 21.5316 31.7462 21.306 31.1033 20.8738C30.3931 20.3965 29.9857 19.5216 29.8515 18.8258C29.8017 18.5675 29.614 18.3566 29.3621 18.2757C29.11 18.1947 28.8335 18.2565 28.6408 18.4369C27.3547 19.641 26.0601 19.8321 25.0642 19.5456C24.0379 19.2503 23.2475 18.4302 23.0002 17.4483C22.9293 17.1666 22.695 16.9546 22.4059 16.9106Z" fill="#F4D390"/>
</svg>
