<svg width="240" height="240" viewBox="0 0 240 240" fill="none" xmlns="http://www.w3.org/2000/svg">
<path d="M130.671 6.00372C120.923 6.24104 105.959 16.4722 94.3138 27.2782C91.89 29.5249 89.677 31.7135 87.622 33.8125C117.234 35.1046 145.161 33.6226 172.876 31.5922C170.189 28.9975 167.08 26.1444 163.602 23.228C152.801 14.1517 139.048 5.79804 130.671 6.00372ZM215.082 37.9155C162.391 41.7654 110.385 47.7248 49.6845 40.1832C46.9445 42.8729 45.5219 45.2461 45.1003 47.1974C44.7315 49.0959 44.995 50.8363 46.2595 53.0513C106.064 66.394 165.868 66.7104 218.665 49.5706C218.928 48.0939 218.717 46.5645 218.085 44.6132C217.453 42.6092 216.346 40.3414 215.082 37.9155ZM208.495 62.4914C161.548 75.0958 110.226 74.9903 58.8 65.3392C46.2069 114.016 21.9163 157.842 28.803 209.156L29.4142 213.691L24.8986 214.482C19.7191 215.326 12.3423 219.914 8.06381 224.661C5.91928 227.034 4.59147 229.407 4.28059 230.726C3.96971 231.991 3.78529 231.464 4.45447 231.886C7.18387 233.732 15.5196 234.734 24.3875 233.363C33.2554 231.991 42.7292 228.669 48.4726 225.03L50.0533 224.028L51.8975 224.397C97.8441 233.099 139.628 237.476 185.733 226.296L187.998 225.716L189.843 227.192C192.793 229.618 202.33 231.622 212.184 231.939C221.141 232.255 229.993 231.675 236 231.411C235.42 229.829 234.261 227.403 232.522 224.819C230.309 221.655 227.517 218.385 224.882 215.906C222.195 213.428 219.402 212.004 219.033 211.898L214.344 211.002L215.292 206.308C224.829 159.266 229.256 111.643 208.495 62.4914ZM128.141 81.1607C159.387 81.1607 184.099 110.008 184.099 144.763C184.099 179.517 159.387 208.365 128.141 208.365C96.8956 208.365 72.1835 179.517 72.1835 144.763C72.1835 110.008 96.8956 81.1607 128.141 81.1607Z" fill="#74895E"/>
<path d="M118.787 192.658L119.841 172.037C103.612 168.873 98.8701 151.259 98.8174 144.772C103.718 145.299 114.625 149.149 120.579 157.851L121.264 144.983C104.982 141.871 100.24 124.204 100.187 117.717C105.035 118.245 116.047 122.095 122.001 130.902L122.686 118.086C113.307 114.184 110.409 102.74 110.357 98.3097C114.572 98.7316 124.794 102.634 128.219 111.758C132.645 103.109 143.131 100.314 147.293 100.314C146.819 104.955 142.551 116.452 132.118 118.983L131.486 131.271C138.283 123.202 149.559 120.512 154.512 120.565C153.721 126.946 147.24 144.034 130.748 145.458L130.063 158.431C136.86 150.309 148.189 147.62 153.089 147.62C152.404 154.001 145.87 171.141 129.326 172.512L128.272 192.974C128.272 192.974 128.272 196.918 123.529 196.852C118.787 196.785 118.787 192.658 118.787 192.658Z" fill="#74895E"/>
</svg>
