<svg width="35" height="35" viewBox="0 0 35 35" fill="none" xmlns="http://www.w3.org/2000/svg">
<path d="M15.1025 8.33338C15.6769 7.85547 16.5114 7.94418 16.8158 8.61621C16.9687 8.95386 17.1153 9.34703 17.2251 9.77969C17.5895 11.2164 17.2858 12.0044 17.7273 12.7078C18.1688 13.4112 20.6958 15.9935 21.014 17.8702C21.1644 18.7576 21.2104 19.663 21.103 20.5622C20.9924 21.5668 20.6912 22.3977 20.0863 23.1925L20.0337 23.2587C18.9148 24.5983 16.9975 22.9037 15.5196 21.1031L12.2917 17.1706C12.2917 17.1706 11.9278 16.6069 11.4141 17.0343C10.9008 17.4613 11.3817 17.9277 11.3817 17.9277L14.6095 21.8603C15.3784 22.797 16.3484 23.8173 17.3473 24.4008C17.8479 24.6932 18.469 24.9436 19.1458 24.9149C19.8907 24.8832 20.5396 24.5203 21.0139 23.8971C21.3378 23.4715 21.6657 22.9494 21.8696 22.4082C21.976 22.1257 22.3896 22.0095 22.5784 22.2395L24.7874 24.9308C27.5322 28.2749 26.9179 31.3319 26.3417 32.6153C25.7655 33.8986 23.2827 33.6864 19.4163 32.6155C15.5497 31.5447 12.3553 28.9765 9.41438 25.3936C7.36831 22.9008 6.04377 19.3684 5.46674 17.331C5.32762 16.8398 5.50909 16.3151 5.90574 15.9851L15.1025 8.33338Z" fill="white"/>
<path d="M2.98133 15.2772L0.762651 12.5742C0.354204 12.0765 0.430533 11.3341 0.933141 10.916L11.9188 1.77592C12.4214 1.35775 13.1599 1.42216 13.5684 1.91978L15.7871 4.62286C16.1955 5.12048 16.1192 5.86288 15.6166 6.28105L4.63093 15.4211C4.12833 15.8393 3.38977 15.7749 2.98133 15.2772Z" fill="white"/>
<path d="M32.6345 18.2123C30.4699 20.0132 27.2891 19.7358 25.53 17.5927C23.7709 15.4495 24.0997 12.2522 26.2643 10.4512C28.4289 8.65027 31.6097 8.92766 33.3688 11.0708C35.1279 13.214 34.7992 16.4113 32.6345 18.2123Z" fill="white"/>
</svg>
