<svg width="240" height="240" viewBox="0 0 240 240" fill="none" xmlns="http://www.w3.org/2000/svg">
<path d="M32.1346 177.321L32.1661 177.299C2.41783 144.099 4.16844 92.8139 36.5258 61.8362C50.8151 48.1596 69.5566 39.9578 89.2251 38.6273C99.1418 37.9908 108.522 33.8854 115.73 27.0265L117.159 25.6588C137.72 5.97972 170.174 6.2091 190.475 25.777L190.515 25.739L192.106 27.4108L214.382 50.8155C234.537 71.9913 233.752 105.754 212.636 125.965L211.207 127.333C204.06 134.249 199.499 143.483 198.416 153.343C196.25 173.063 187.207 191.454 172.918 205.131C139.896 236.661 87.4538 235.435 56.0096 202.398L32.1346 177.321ZM34.5601 82.9618C17.3222 109.296 19.3381 144.798 41.0821 169.054C41.5562 169.584 42.0433 170.112 42.5434 170.637C50.6206 179.127 60.677 185.468 71.8066 189.09C82.9363 192.712 94.7896 193.5 106.299 191.384C114.645 189.855 122.643 186.813 129.902 182.409C133.759 180.086 135.347 175.219 133.503 171.051L112.475 124.013C108.317 114.834 101.149 107.359 92.1652 102.834L46.0512 79.8056C41.983 77.8425 37.0554 79.1283 34.5601 82.9618ZM137.033 159.458C137.635 160.822 138.569 162.013 139.748 162.923C140.928 163.832 142.316 164.431 143.785 164.664C145.255 164.897 146.759 164.758 148.161 164.258C149.563 163.759 150.818 162.915 151.811 161.804C158.596 151.945 162.835 140.552 164.147 128.646C165.529 115.913 171.393 104.063 180.604 95.1713L182.033 93.8036C186.045 89.9717 189.237 85.3607 191.415 80.2516C193.593 75.1425 194.71 69.6422 194.7 64.0859C194.698 58.4732 193.543 52.9212 191.307 47.7759C189.071 42.6307 185.802 38.0028 181.703 34.1807C165.84 19.3712 140.89 19.8387 125.101 34.9514L124.148 35.8632C114.87 44.6888 102.799 49.9707 90.0369 50.7888C78.3769 51.5281 67.1173 55.0789 57.1979 61.074C51.2135 64.7481 51.5505 73.6294 57.8431 76.7343L95.5897 95.7526C95.631 95.7588 95.672 95.7727 95.7129 95.7944C95.7538 95.8162 95.7897 95.83 95.8206 95.8359C103.264 99.5125 112.139 98.3968 118.172 92.6222L124.046 86.9996C127.778 83.4285 129.299 78.0933 127.939 73.1578C126.77 68.9112 126.767 64.4266 127.932 60.1788C129.096 55.931 131.384 52.0779 134.554 49.0273C136.945 46.7259 139.783 44.9431 142.892 43.7901C146 42.637 149.312 42.1384 152.621 42.3253C155.93 42.5122 159.165 43.3806 162.125 44.8764C165.085 46.3722 167.706 48.4633 169.824 51.0193C177.605 60.2303 177.283 74.0777 169.081 82.9929C162.313 90.307 152.327 92.4866 143.7 89.6385C141.293 88.8302 138.712 88.6987 136.236 89.2583C133.759 89.8179 131.484 91.0473 129.655 92.8128L123.86 98.3594C117.827 104.134 116.3 113.05 119.693 120.679C119.692 120.715 119.707 120.742 119.738 120.758C119.758 120.774 119.771 120.8 119.775 120.837L137.033 159.458ZM141.831 56.5141C136.512 61.6048 136.317 70.0067 141.394 75.3404C146.47 80.6741 154.926 80.8718 160.243 75.8588C165.562 70.7681 165.759 62.2885 160.682 56.9548C158.239 54.3927 154.882 52.9074 151.347 52.8248C147.813 52.7422 144.391 54.069 141.831 56.5141Z" fill="#BA2C1C"/>
</svg>
