<svg width="35" height="35" viewBox="0 0 35 35" fill="none" xmlns="http://www.w3.org/2000/svg">
<path d="M6.95413 3.32135C9.82091 3.17042 16.7424 3.3381 21.5269 5.74701C27.5076 8.75817 29.9505 12.4385 31.2983 17.2898C32.6461 22.1411 32.1406 28.0798 32.0564 29.4181C31.9722 30.7564 30.7086 31.3419 29.782 31.6765C28.8555 32.0111 27.4234 30.2546 25.5703 30.0873C23.7171 29.92 20.3476 30.5054 17.5678 29.5018C14.7881 28.498 12.0083 26.5742 8.80732 23.2285C5.60636 19.8828 5.43789 17.5407 5.26942 13.3586C5.10095 9.17643 4.17436 7.58718 3.92164 6.83438C3.66894 6.08159 3.66894 5.57973 4.67977 4.65965C5.69057 3.7396 6.11297 3.36564 6.95413 3.32135ZM11.4236 4.83363C11.2034 4.80019 10.9844 4.89292 10.8558 5.07051L10.8313 5.10711C10.5111 5.62731 10.1558 5.92954 9.80844 6.09972C9.45918 6.27081 9.08253 6.32564 8.6961 6.29658C7.90376 6.23696 7.11959 5.82626 6.64565 5.45475C6.39006 5.25439 6.01924 5.29769 5.81744 5.55146C5.61566 5.80526 5.65926 6.17347 5.91484 6.37385C6.5079 6.83875 7.50966 7.38159 8.60693 7.46415C9.16529 7.50616 9.75955 7.42935 10.3301 7.14984C10.6334 7.0013 10.9196 6.7998 11.1848 6.54195C11.6476 7.28161 12.3829 7.84834 13.255 8.09932C14.2889 8.39681 15.4724 8.24171 16.5921 7.4898C16.8373 8.04758 17.2333 8.62302 17.8291 9.02348C18.6499 9.57516 19.7351 9.72203 21.074 9.2241C21.172 9.87437 21.4132 10.5891 21.9001 11.1544C22.2783 11.5936 22.798 11.9326 23.4774 12.068C23.8771 12.1476 24.3178 12.1535 24.8016 12.0806C24.6787 12.7279 24.664 13.4672 24.9005 14.156C25.0957 14.7244 25.4614 15.2522 26.0584 15.641C26.4383 15.8883 26.8962 16.0689 27.4369 16.1761C27.1056 16.8088 26.8512 17.5799 26.8958 18.3561C26.9306 18.9605 27.148 19.5664 27.6414 20.0814C27.9669 20.4211 28.3955 20.7036 28.9333 20.9239C28.5397 21.465 28.1887 22.1419 28.0901 22.8609C28.0134 23.4199 28.0888 24.0167 28.4292 24.5743C28.629 24.9017 28.9084 25.1964 29.2699 25.4555C28.9082 25.7712 28.5619 26.1771 28.3303 26.6659C27.8933 27.5883 27.9036 28.7305 28.8031 29.9343C28.9972 30.1939 29.3666 30.2482 29.628 30.0556C29.8895 29.8629 29.9441 29.4961 29.7501 29.2364C29.0998 28.366 29.1521 27.682 29.3974 27.1643C29.6676 26.5939 30.215 26.1475 30.6469 25.9211C30.8468 25.8163 30.9689 25.6071 30.961 25.3828C30.9531 25.1585 30.8168 24.9585 30.6101 24.8677C29.964 24.5842 29.6177 24.2623 29.4377 23.9674C29.2607 23.6775 29.2117 23.3604 29.2585 23.0189C29.3573 22.299 29.8768 21.5367 30.3674 21.0495C30.5179 20.9001 30.5757 20.6816 30.5184 20.4781C30.4612 20.2745 30.2977 20.1173 30.091 20.0669C29.2718 19.8673 28.7824 19.5733 28.4958 19.2742C28.2166 18.9828 28.0939 18.6497 28.0731 18.2894C28.0292 17.5254 28.4502 16.6466 28.9035 16.0551C29.0368 15.8811 29.0614 15.6479 28.9673 15.4503C28.8732 15.2527 28.6761 15.1235 28.4562 15.1154C27.6223 15.0847 27.0694 14.8989 26.7051 14.6617C26.3478 14.429 26.1353 14.1234 26.0168 13.7781C25.7678 13.0529 25.9323 12.1353 26.1997 11.4905C26.2878 11.2781 26.2426 11.0342 26.0844 10.8667C25.9261 10.6993 25.6836 10.6393 25.4646 10.7132C24.6908 10.9744 24.1217 11.002 23.7093 10.9198C23.306 10.8395 23.0148 10.6471 22.7964 10.3935C22.3353 9.85808 22.1751 9.01359 22.2003 8.3625C22.2084 8.15312 22.1032 7.95534 21.9244 7.84398C21.7456 7.73265 21.5206 7.72468 21.3343 7.82307C19.8856 8.5882 19.0126 8.40486 18.4902 8.05374C17.9131 7.66589 17.5821 6.95502 17.4731 6.3897C17.4326 6.17983 17.2802 6.00851 17.0754 5.94273C16.8707 5.87697 16.646 5.92715 16.4894 6.07375C15.4444 7.05208 14.3926 7.20735 13.5834 6.97455C12.7496 6.7346 12.1073 6.06831 11.9064 5.27047C11.8488 5.04159 11.6584 4.86933 11.4236 4.83363Z" fill="white"/>
</svg>
