<svg width="24" height="24" viewBox="0 0 24 24" fill="none" xmlns="http://www.w3.org/2000/svg">
<path d="M20.9969 18.2148C20.8763 18.735 20.592 19.2024 20.186 19.5475C19.7327 20.0103 19.1917 20.3773 18.5949 20.6267C17.998 20.8762 17.3574 21.0031 16.711 20.9999H16.3877C15.0458 20.9297 13.7306 20.5965 12.5162 20.019C12.2218 19.8803 11.9355 19.7506 11.5951 19.5929C10.1719 18.7859 8.86563 17.7869 7.71279 16.6237C6.21419 15.2127 4.98616 13.5377 4.08968 11.6817C3.59613 10.6693 3.26368 9.58542 3.10443 8.46961C2.88194 7.30687 3.01348 6.10382 3.48191 5.01722C3.7733 4.52392 4.12995 4.07254 4.54212 3.67543C4.73038 3.46924 4.95804 3.30319 5.21155 3.18716C5.46505 3.07112 5.73922 3.00747 6.01773 3C6.32142 3.03223 6.61565 3.12501 6.88315 3.27291C7.15065 3.42081 7.38605 3.62084 7.57552 3.86128C7.99996 4.33272 8.49665 4.78603 8.94819 5.26654L9.52976 5.84133C9.87293 6.14324 10.0851 6.56844 10.1195 7.02537C10.1204 7.44604 9.96594 7.8513 9.68599 8.16408C9.5097 8.38341 9.32222 8.59342 9.12428 8.79327L8.93012 8.99726C8.81705 9.10274 8.72882 9.2322 8.67185 9.37623C8.62489 9.51585 8.60863 9.66453 8.62669 9.8114C8.7748 10.2139 9.00689 10.5802 9.30851 10.8848C9.77811 11.5231 10.2296 12.0788 10.7372 12.7361C11.6125 13.75 12.6502 14.6101 13.8076 15.281C13.9187 15.3717 14.0514 15.4324 14.1941 15.4569C14.3205 15.4759 14.4479 15.4569 14.5626 15.4007C14.9142 15.2117 15.2271 14.9576 15.4846 14.6518C15.8097 14.2493 16.2811 13.9936 16.794 13.9383C17.0403 13.9392 17.2838 13.9897 17.5102 14.0867C17.7367 14.1837 17.9415 14.3253 18.1125 14.5031C18.3232 14.6857 18.5228 14.88 18.7113 15.0861L18.9876 15.3826L19.2739 15.66C19.4482 15.8359 19.6143 15.9936 19.7796 16.1786C20.0806 16.4385 20.3606 16.7192 20.6194 17.0208C20.884 17.3599 21.0177 17.7842 20.9969 18.2148Z" fill="#BA2C1C"/>
</svg>
