<svg width="35" height="35" viewBox="0 0 35 35" fill="none" xmlns="http://www.w3.org/2000/svg">
<path d="M17.5 2C26.0604 2 33 8.93959 33 17.5C33 26.0604 26.0604 33 17.5 33C8.93959 33 2 26.0604 2 17.5C2 8.93959 8.93959 2 17.5 2ZM17.5951 7.13497C11.8181 7.13497 7.13497 11.8181 7.13497 17.5951C7.13497 23.3721 11.8181 28.0552 17.5951 28.0552C23.3721 28.0552 28.0552 23.3721 28.0552 17.5951C28.0552 11.8181 23.3721 7.13497 17.5951 7.13497ZM17.5951 8.27607C22.7418 8.27607 26.9141 12.4483 26.9141 17.5951C26.9141 22.7418 22.7418 26.9141 17.5951 26.9141C12.4483 26.9141 8.27607 22.7418 8.27607 17.5951C8.27607 12.4483 12.4483 8.27607 17.5951 8.27607Z" fill="white"/>
</svg>
