<svg width="32" height="32" viewBox="0 0 32 32" fill="none" xmlns="http://www.w3.org/2000/svg">
<g clip-path="url(#clip0_457_1277)">
<path fill-rule="evenodd" clip-rule="evenodd" d="M16 0C7.16333 0 0 7.16333 0 16C0 24.8367 7.16333 32 16 32C24.8367 32 32 24.8367 32 16C32 7.16333 24.8367 0 16 0ZM25.3487 21.4069C24.9403 20.6467 23.2812 19.0091 23.2812 19.0091C21.751 17.5766 21.751 17.4809 23.1913 15.5931L23.9007 14.657C25.4895 12.5054 25.5911 11.796 25.5051 11.5634C25.4562 11.4169 25.1963 11.3602 24.8172 11.3602H21.3367C21.2528 11.3615 21.1702 11.3809 21.0944 11.4169C20.9928 11.4775 20.9068 11.6338 20.8775 11.6846C20.5488 12.5408 20.1602 13.3727 19.7147 14.1743C18.2647 16.662 17.7292 16.662 17.5514 16.662C17.4723 16.6636 17.3946 16.6411 17.3286 16.5976C16.8178 16.2603 16.8399 15.4407 16.8594 14.717L16.8596 14.7117L16.8654 14.3365C16.8654 13.7971 16.883 13.3398 16.9006 12.9353C16.9573 11.5107 16.9436 11.0944 16.2987 10.94C15.9802 10.8599 15.7535 10.8032 14.8741 10.7915H14.4226C13.6116 10.7915 12.7948 10.8247 12.3414 11.0514C12.1871 11.1287 12.0537 11.242 11.9525 11.3817C12.2026 11.4286 12.615 11.5556 12.8573 11.8898C13.1954 12.351 13.1973 13.3125 13.1973 13.4043C13.2266 13.8929 13.3498 16.2477 12.6892 16.6151C12.6057 16.6602 12.5125 16.6844 12.4176 16.6855C11.9114 16.6855 11.2802 15.9507 10.2503 14.1411C9.61521 13.0311 9.22828 12.0442 9.12275 11.796C9.03285 11.583 8.90387 11.3426 8.50912 11.3426H5.54845C5.21819 11.3426 4.91528 11.5322 5.06185 11.8859C5.08139 11.9367 7.40693 17.4047 9.99043 20.1308C12.101 22.3567 14.4832 22.5169 14.9405 22.5169H16.2831C16.5312 22.5169 16.883 22.2609 16.883 21.8154C16.883 20.3888 17.3638 19.8533 17.739 19.7321C17.7989 19.7125 17.8616 19.7026 17.9246 19.7028C18.421 19.7028 18.9135 20.2735 19.4821 20.934L19.4843 20.9365C19.8647 21.3794 20.2548 21.8335 20.6508 22.1104C21.1667 22.4661 21.5927 22.5189 21.796 22.5189H24.7273C24.8876 22.5072 25.3566 22.3743 25.4934 22.1046C25.5767 21.943 25.5357 21.7235 25.3702 21.446C25.3676 21.4369 25.3605 21.4239 25.3487 21.4069Z" fill="#536BC0"/>
<path d="M23.2812 19.0091C23.2812 19.0091 24.9403 20.6467 25.3487 21.4069C25.3605 21.4239 25.3676 21.4369 25.3702 21.446C25.5357 21.7235 25.5767 21.943 25.4934 22.1046C25.3566 22.3743 24.8876 22.5072 24.7273 22.5189H21.796C21.5927 22.5189 21.1667 22.4661 20.6508 22.1104C20.2548 21.8335 19.8647 21.3794 19.4843 20.9365L19.4821 20.934C18.9135 20.2735 18.421 19.7028 17.9246 19.7028C17.8616 19.7026 17.7989 19.7125 17.739 19.7321C17.3638 19.8533 16.883 20.3888 16.883 21.8154C16.883 22.2609 16.5312 22.5169 16.2831 22.5169H14.9405C14.4832 22.5169 12.101 22.3567 9.99043 20.1308C7.40693 17.4047 5.08139 11.9367 5.06185 11.8859C4.91528 11.5322 5.21819 11.3426 5.54845 11.3426H8.50912C8.90387 11.3426 9.03285 11.583 9.12275 11.796C9.22828 12.0442 9.61521 13.0311 10.2503 14.1411C11.2802 15.9507 11.9114 16.6855 12.4176 16.6855C12.5125 16.6844 12.6057 16.6602 12.6892 16.6151C13.3498 16.2477 13.2266 13.8929 13.1973 13.4043C13.1973 13.3125 13.1954 12.351 12.8573 11.8898C12.615 11.5556 12.2026 11.4286 11.9525 11.3817C12.0537 11.242 12.1871 11.1287 12.3414 11.0514C12.7948 10.8247 13.6116 10.7915 14.4226 10.7915H14.8741C15.7535 10.8032 15.9802 10.8599 16.2987 10.94C16.9436 11.0944 16.9573 11.5107 16.9006 12.9353C16.883 13.3398 16.8654 13.7971 16.8654 14.3365L16.8596 14.7117L16.8594 14.717C16.8399 15.4407 16.8178 16.2603 17.3286 16.5976C17.3946 16.6411 17.4723 16.6636 17.5514 16.662C17.7292 16.662 18.2647 16.662 19.7147 14.1743C20.1602 13.3727 20.5488 12.5408 20.8775 11.6846C20.9068 11.6338 20.9928 11.4775 21.0944 11.4169C21.1702 11.3809 21.2528 11.3615 21.3367 11.3602H24.8172C25.1963 11.3602 25.4562 11.4169 25.5051 11.5634C25.5911 11.796 25.4895 12.5054 23.9007 14.657L23.1913 15.5931C21.751 17.4809 21.751 17.5766 23.2812 19.0091Z" fill="white"/>
</g>
<defs>
<clipPath id="clip0_457_1277">
<rect width="32" height="32" fill="white"/>
</clipPath>
</defs>
</svg>
